<?xml version="1.0" encoding="utf-8"?>
<!-- Generator: Adobe Illustrator 20.0.0, SVG Export Plug-In . SVG Version: 6.00 Build 0)  -->
<svg version="1.1" id="Layer_1" xmlns="http://www.w3.org/2000/svg" xmlns:xlink="http://www.w3.org/1999/xlink" x="0px" y="0px"
	 width="277.1px" height="212.3px" viewBox="0 0 277.1 212.3" enable-background="new 0 0 277.1 212.3" xml:space="preserve">
<g>
	<path fill="#FFFFFF" d="M251.7,128.8c-0.3-8-0.8-16-1.4-24c-0.3-4.4-0.6-8.9-1.1-13.3c-0.3-2.3-0.6-4.8-2.3-6.6
		c-4.2-4.4-14-4.1-19.5-4.1c-8.4,0.1-16.8,1.7-24.8,4.3c-6.1,2-12,4.4-17.9,7.2c-8.5-4.2-18.1-6.6-27.6-7.9
		c17.4-6.1,35.2-10.9,53.2-14.5c0.8-0.2,0.8-1.3,0.2-1.7c-9-6-18.4-11.4-28.2-15.9c7-8.2,14-16.3,21-24.5c0.4-0.5,0.2-1.1-0.2-1.4
		c0-0.2-0.2-0.3-0.4-0.3c-17.2,0.4-33.4,7-49.5,12.6c-16.3,5.7-32.6,11.7-48.2,19.2c-4.6,2.2-9.3,4.9-14.1,7.6c0,0,0,0,0,0
		c-7.3-2.1-14.8-3.6-22.5-4.3c-6.1-0.5-13.8-1.3-18.9,2.9c-1.9,1.5-3.3,3.8-3.8,6.2c-0.1,0-0.2,0-0.2,0.1c-3,5.6-1,11.2,0.7,17
		c1.4,4.6,1.9,8.8,0.5,13.5c-1.1,3.8-3,7.3-3.6,11.3c-2,13.2,11.4,15.9,21.5,13c9.6-2.8,18.8-7,27.8-11.5c6.5,0.9,12.8,2.1,19.1,3.7
		c0,0.1,0,0.1,0,0.2c0,0.3,0.5,0.3,0.5,0c0,0,0,0,0-0.1c4.7,1.2,9.3,2.5,14,4c0,0,0.1,0,0.1,0c1.4,0.4,2.7,0.9,4.1,1.3
		c-7.3,4.4-14.6,8.7-21.9,13.1c-17.5,10.3-35.7,20.3-56.3,22c-0.6,0-1,0.7-0.5,1.2c3.8,3.5,7.6,7,11.4,10.4c1.9,1.7,3.8,3.5,5.7,5.2
		c1.6,1.4,4.1,2.9,4.5,5c0.7,3.5-4.3,9.9-5.9,13.1c-2.3,4.6-4.6,9.2-6.9,13.8c-0.1,0.2,0,0.4,0.1,0.6c-0.3,0.1-0.2,0.7,0.2,0.7
		c33.1-2.3,60-26.3,86.2-44.1c13.6-9.2,27.6-17.9,42.4-25c4.3-2.1,8.6-4,13.1-5.7c8.1,4.6,16.9,8,26.1,9.8c4.9,1,10.6,2,15.6,0.8
		c0,0,0,0,0,0c0,0.5,0.7,0.5,0.7,0c0-0.1,0-0.2,0-0.2c1.6-0.5,3.2-1.3,4.6-2.4C253.1,137.8,254.1,132.8,251.7,128.8z M183.4,92.9
		c-1.8,0.8-3.5,1.7-5.2,2.6c0-1.1,0.1-2.2-0.1-3.3c-0.1-0.5-0.7-0.5-0.8,0c-0.2,1.2-0.1,2.5-0.1,3.8c-0.8,0.4-1.6,0.8-2.3,1.2
		c0,0,0,0,0,0c0.1-2.3,0.4-4.8,0-7C177.7,91.1,180.5,92,183.4,92.9z M174.1,90c0,0-0.1,0.1-0.1,0.1c-0.3,2.3,0,4.8,0.2,7.1
		c0,0.1,0.1,0.2,0.2,0.3c-1,0.5-2.1,1.1-3.1,1.6c-0.1-3.4,0-6.7-0.2-10.1C172.1,89.3,173.1,89.7,174.1,90z M167.2,87.9
		c1.1,0.3,2.1,0.6,3.1,0.9c0,3.5,0.3,7.1,0.4,10.6c-1.3,0.7-2.5,1.4-3.8,2.1C167.2,97,167.2,92.4,167.2,87.9z M162.8,86.8
		c1.1,0.3,2.3,0.6,3.4,0.9c-0.1,4.6-0.1,9.3,0.2,13.9c0,0.1,0.1,0.2,0.1,0.2c-1.3,0.7-2.6,1.4-3.8,2.2
		C162.9,98.2,163,92.5,162.8,86.8z M158,85.7c1.3,0.3,2.6,0.6,3.9,0.9c-0.2,5.9-0.1,11.8,0.2,17.7c-1,0.6-2.1,1.2-3.1,1.8
		c-1.6-2.3-0.7-8-0.7-10.6C158.1,92.2,158.1,88.9,158,85.7z M157.3,99.3c0.1,2.3-0.5,5.2,1.1,7.1c-0.7,0.4-1.4,0.8-2.1,1.2
		c-0.8,0.5-1.7,1-2.5,1.4c0.1-7.7-0.3-15.5-0.6-23.2c0.6-0.2,1.2-0.4,1.8-0.7c0.7,0.1,1.4,0.3,2.1,0.4c0,0,0,0,0,0
		C157,90.1,157.2,94.7,157.3,99.3z M148.3,87.9c0-0.1-0.1-0.2-0.1-0.2c1.4-0.5,2.8-1.1,4.2-1.6c0.2,7.7,0.3,15.5,0.9,23.2
		c-1.6,0.9-3.1,1.8-4.7,2.7C148.8,104,148.9,95.8,148.3,87.9z M88.8,66.7c-1.3,0.7-2.7,1.5-4,2.2c0.1-1.1,0-2.5-0.6-3.4
		C85.8,65.9,87.3,66.2,88.8,66.7z M83.8,65.4c-0.1,0.1-0.1,0.1-0.1,0.2c0,0.6,0.2,1.2,0.3,1.8c0.1,0.6,0.1,1.3,0.1,1.9
		c-1,0.5-2,1.1-3,1.6c0.1-2,0.1-4.1,0-6.1C82,65,82.9,65.2,83.8,65.4z M80.3,64.6c-0.2,2.2-0.1,4.4,0,6.7c-1,0.5-2,1-3,1.4
		c0.2-2.9,0-5.9-0.7-8.8C77.8,64.1,79.1,64.4,80.3,64.6z M75.6,63.8c0.4,3.1,0.8,6.1,0.9,9.3c-1.3,0.6-2.6,1.1-3.9,1.7
		c0,0,0-0.1,0-0.1c0.1-3.7,0.2-7.7-0.7-11.3C73.2,63.4,74.4,63.6,75.6,63.8z M67.6,62.8c-0.3,4.1,0.3,8.4,0.8,12.4
		c0,0.4,0.6,0.4,0.6,0c-0.2-4.1-0.1-8.3-0.7-12.4c1,0.1,2,0.2,3,0.3C71.4,67,72,70.7,72,74.6c0,0.2,0.1,0.3,0.2,0.3
		c-2.4,0.9-4.8,1.7-7.2,2.3c-0.1-4.8-0.2-9.8-0.8-14.6C65.3,62.6,66.5,62.7,67.6,62.8z M63.1,62.5c0.2,0,0.3,0,0.5,0c0,0,0,0,0,0
		c0,4.9,0.5,9.8,1.1,14.7c-1,0.2-2.1,0.5-3.1,0.6c-0.7-5.1-0.7-10.2-1.1-15.4C61.3,62.5,62.2,62.5,63.1,62.5z M59.7,62.5
		C59.2,67.6,60,72.9,61,77.9c-1.2,0.2-2.3,0.3-3.5,0.4c-0.3-5-0.7-10.1-1.2-15.1c0-0.1-0.1-0.2-0.2-0.3
		C57.3,62.7,58.5,62.6,59.7,62.5z M55.6,63c0,0.1,0,0.1,0,0.2c0.4,5,0.9,10.1,1.5,15.1c-1,0-1.9,0-2.8-0.2c0-4.8-0.2-9.7-0.8-14.5
		C54.1,63.4,54.9,63.2,55.6,63z M48.8,67.3c0.2-0.3,0.4-0.6,0.6-0.8c0.1,3.1,0.6,6.3,1,9.4c0,0.1,0.2,0.2,0.2,0
		c-0.1-3.3,0-6.8-0.5-10.1c0.8-0.7,1.7-1.3,2.6-1.8c0,4.6,0.4,9.4,1,14.1C48.7,77,44.9,73,48.8,67.3z M93.9,112.9
		c1.5-0.8,3-1.5,4.6-2.3c0.1,0.9,0.2,1.9,0.4,2.8C97.2,113.2,95.6,113,93.9,112.9z M99.4,113.4c-0.1-1-0.2-2.1-0.4-3.1
		c0.8-0.4,1.6-0.8,2.5-1.3c-0.1,1.5,0.1,3.1,0.4,4.5c0.1,0.3,0.4,0.1,0.4-0.1c-0.3-1.6-0.2-3.1-0.2-4.7c0.9-0.5,1.8-0.9,2.7-1.4
		c-0.1,2.3,0,4.5,0.1,6.8C103,113.9,101.2,113.6,99.4,113.4z M105.2,114.3c0.1-2.4,0.1-4.8,0.1-7.1c0.9-0.5,1.8-0.9,2.7-1.4
		c-0.1,3,0.1,6.1,0.4,9.1C107.3,114.6,106.3,114.4,105.2,114.3z M108.8,114.9c0-3.1,0-6.3-0.3-9.4c0,0,0,0,0-0.1
		c0.8-0.4,1.7-0.8,2.5-1.2c0,3.7,0.2,7.5,0.4,11.2C110.5,115.3,109.7,115.1,108.8,114.9z M111.4,102c-0.1,0-0.3,0-0.3,0.2
		c-2,1-4,2-6.1,3c-8.3,4.3-16.6,8.6-25.2,12.3c-8.2,3.6-21,10.5-29.9,6.2c-11.2-5.5-2-17.6-0.9-25.9c1.2-8.9-5.4-16.6-3.4-25.4
		c0,0.7,0.2,1.5,0.4,2.2c1.5,4.3,6.4,5.6,10.5,5.5c1.6,0,3.2-0.2,4.8-0.4c0.1,0.2,0.3,0.1,0.3-0.1c6.6-1.1,12.9-3.8,19-7
		c0.1,0,0.1,0,0.2-0.1c3.3-1.7,6.6-3.6,9.7-5.3c0.3,0,0.5-0.1,0.6-0.4c1.8-1,3.5-1.9,5.2-2.8c15.5-8.1,31.8-14.6,48.2-20.5
		c18.5-6.6,37.1-14,56.7-16.3c-7.1,8.2-14.3,16.5-21.4,24.7c-0.4,0.4-0.4,1.2,0.2,1.5c9.5,4.4,18.7,9.4,27.4,15.1
		c-24,4.8-47.2,12.1-69.6,21.3c0-0.6-0.9-0.6-0.9,0c0,0.1,0,0.3,0,0.4C128.5,93.9,119.9,97.8,111.4,102z M144.2,89.6
		c0-0.1,0-0.2-0.1-0.3c1.1-0.5,2.3-0.9,3.5-1.4c-0.3,8,0.1,16.3,0.5,24.3c0,0,0,0,0,0.1c-1.2,0.7-2.5,1.4-3.7,2.2
		C144.4,106.2,144.4,97.9,144.2,89.6z M138.2,91.7c1.7-0.7,3.4-1.4,5.1-2.1c0,8.4,0.2,16.8,0.5,25.2c-1.8,1.1-3.7,2.1-5.5,3.2
		C138.6,109.3,138.6,100.4,138.2,91.7z M133.8,93.9c0-0.1,0-0.2-0.1-0.3c1.2-0.5,2.3-1,3.5-1.5c-0.2,8.7,0,17.5,0.6,26.2
		c-1.2,0.7-2.5,1.5-3.8,2.2C134.3,111.7,134,102.8,133.8,93.9z M116.9,116.8c-0.2-4.7-0.1-9.7-1-14.3c-0.1-0.3-0.5-0.2-0.5,0.1
		c-0.2,4.6,0.5,9.5,1,14.1c-1.4-0.4-2.9-0.8-4.4-1.1c0-3.9,0-7.8-0.2-11.7c2.4-1.2,4.9-2.4,7.3-3.6c-0.2,5.8,0.5,11.8,1.2,17.5
		C119.1,117.4,118,117.1,116.9,116.8z M121,118c-0.3-6-0.5-12.1-1.2-18c1.2-0.6,2.3-1.1,3.5-1.6c0.8,7.1,1.5,14.3,2.5,21.3
		C124.1,119.1,122.6,118.5,121,118z M126.3,119.9c-0.5-7.4-1.4-14.7-2.2-22c1.4-0.7,2.8-1.3,4.2-1.9c0.2,8.4,0.3,17.1,1.4,25.4
		C128.6,120.8,127.5,120.4,126.3,119.9z M130.1,121.5c0.4-8.5-0.4-17.4-1-25.9c1.2-0.5,2.4-1.1,3.7-1.6c0.1,8.9,0.1,17.9,0.7,26.9
		c-0.7,0.4-1.4,0.8-2.1,1.3c0,0-0.1-0.1-0.1-0.1C130.9,121.8,130.5,121.7,130.1,121.5z M208.1,134.2c-1.3-0.6-2.6-1.3-3.9-2
		c1.3-0.5,2.6-1,3.9-1.5C207.7,131.8,207.7,133.1,208.1,134.2z M215.6,137.4c-2.3-0.9-4.5-1.8-6.7-2.8c-0.1-0.6-0.2-1.1-0.2-1.7
		c0-0.8,0.2-1.6,0.3-2.4c0,0,0,0,0-0.1c1.2-0.4,2.3-0.8,3.5-1.2c-0.2,2.2-0.1,4.4-0.1,6.6c0,0.3,0.4,0.3,0.4,0
		c0.2-2.3,0.4-4.6,0.3-6.8c0.4-0.1,0.7-0.3,1.1-0.4c0.6-0.2,1.2-0.4,1.8-0.6C215.1,131,215.2,134.5,215.6,137.4z M216,137.6
		C216,137.6,216,137.6,216,137.6c0.1-3.3,0.4-6.5,0.6-9.7c0.7-0.2,1.5-0.5,2.2-0.7c-0.5,3.7-0.3,7.7,0.2,11.3c0,0,0,0,0,0.1
		C218,138.3,217,138,216,137.6z M219.3,138.7c0.1,0,0.1-0.1,0.1-0.2c-0.1-3.8,0.2-7.7,0.1-11.6c0.8-0.3,1.7-0.5,2.6-0.7
		c-0.2,1.4,0,3,0.1,4.4c0.1,3,0.2,6,0.4,9.1C221.4,139.4,220.4,139.1,219.3,138.7z M223,139.8c0-2.3,0-4.6-0.1-6.9
		c0-1.9-0.5-4.8,0-6.9c1.3-0.3,2.5-0.6,3.8-0.9c-0.6,5.2-0.3,10.6,0.4,15.8C225.7,140.6,224.3,140.2,223,139.8z M227.5,141
		C227.5,140.9,227.5,140.9,227.5,141c0-5.4,0.1-10.7-0.1-16c1.1-0.2,2.2-0.4,3.3-0.6c-0.3,5.7,0.2,11.6,0.4,17.3
		C229.9,141.5,228.7,141.2,227.5,141z M231.7,141.8c0.1-5.8,0.3-11.7-0.3-17.5c1.1-0.1,2.3-0.2,3.4-0.3c0.1,6.1,0.3,12.2,0.4,18.3
		C234,142.2,232.8,142,231.7,141.8z M235.9,142.4c0.4-6.1,0.3-12.3-0.2-18.4c1.1,0,2.2,0,3.3,0.1c-0.1,6.1,0.5,12.4,0.9,18.5
		C238.6,142.6,237.2,142.5,235.9,142.4z M240.7,142.5c-0.2-6.1-0.2-12.3-0.9-18.4c0.6,0.1,1.2,0.1,1.8,0.2c0.7,0.1,1.4,0.3,2.1,0.6
		c-0.1,5.7,0.2,11.3,0.3,17C242.9,142.2,241.8,142.4,240.7,142.5z M228.7,123.1c-39.4,7.1-73.5,32.7-105.5,55.1
		c-19.1,13.3-38.8,24.7-62,28.8c4.9-9,9.5-18.1,14.2-27.2c0.1-0.3,0.1-0.6-0.1-0.8c-7.2-6.6-14.5-13.2-21.7-19.8
		c30.5-3,57-22.9,82.5-38.1c14.5-8.6,29.1-17.1,44.1-24.7c15.2-7.7,31.6-14.3,48.9-13.8c4.9,0.1,13.7,0.2,17.2,4.5
		c1.7,2.1,1.4,6.5,1.6,9c0.2,2.3,0.4,4.5,0.6,6.8c0.6,8,1.1,16,1.6,24C244.9,121.2,235.6,121.9,228.7,123.1z M244.4,125.2
		c1.1,0.5,2.2,1.1,3.2,1.9c0,0,0,0.1,0,0.1c0.1,4.3,0.5,8.5,0.3,12.8c-0.9,0.7-2,1.3-3.1,1.6C245,136.3,245,130.6,244.4,125.2z
		 M248.6,139.4c0.4-3.8,0.5-7.7-0.1-11.5c0.8,0.7,1.4,1.6,1.9,2.5c0.1,0.8,0.1,1.7,0.2,2.5c0,0.5,0.4,0.7,0.8,0.6
		C251.4,135.5,250.6,137.5,248.6,139.4z"/>
	<g>
		<path fill="#FFFFFF" d="M71.4,104.9c-0.4-0.9-1.2-2.5-2.3-4.7c-2.2-4.5-3.6-7.7-4.6-11c-0.1-0.4,0.1-0.8,0.5-1
			c0.4-0.1,0.8,0.1,1,0.5c0.9,3.2,2.3,6.3,4.5,10.7c1.1,2.2,1.9,3.8,2.3,4.8l1.3,2.8c0.3,0.7,0.5,1.2,0.6,1.6
			c0.1,0.2,0.1,0.4,0.1,0.5c0.1,0.4,0.1,0.6-0.2,0.9c-0.2,0.3-0.6,0.3-0.9,0.3c-0.1,0-0.1-0.1-0.2-0.1s-0.2-0.1-0.3-0.2
			c-0.1-0.1-0.2-0.2-0.3-0.4l-1-1.1l-2.2-2.4c-1.2-1.3-2.7-3-4.3-5.2c-0.8-1.1-1.6-2.1-2.2-2.8c-0.4-0.5-1.6-1.7-1.6-1.7
			c0.4,1,0.7,1.8,1,2.4c0.4,1,1.1,2.5,2,4.6c0.9,2.2,1.5,3.8,2,4.8c0.5,1.1,1.2,2.5,2.2,4.3c0.2,0.4,0.1,0.9-0.2,1.1
			c-0.4,0.2-0.9,0.1-1.1-0.2c-0.7-1.1-1.4-2.5-2.2-4.2c-0.7-1.6-1.5-3.5-2.3-5.5c-0.8-2-1.4-3.4-1.8-4.3c-0.2-0.5-0.6-1.4-1-2.5
			c-0.4-1-0.7-1.8-1-2.4l-0.7-1.6c0,0,0,0,0-0.1c0,0-0.1-0.1-0.2-0.2c-0.2-0.4-0.4-0.7-0.1-1.2c0.1-0.2,0.3-0.3,0.6-0.3
			c0.4-0.1,0.8,0.1,1.1,0.5c0.1,0.1,0.1,0.2,0.2,0.3c0,0,0.1,0,0.1,0.1c0,0,0.1,0.2,0.4,0.4c0.2,0.2,0.5,0.5,0.8,0.9
			c0.5,0.5,0.9,1,1.2,1.3c0.3,0.4,6,8,8.4,10.5l-0.8-0.9c0.5,0.6,1.5,1.4,1.5,1.3L71.4,104.9z"/>
		<path fill="#FFFFFF" d="M71.1,86.4c-0.4,0.2-0.6,0.3-0.6,0.3c0,0.2,0.1,0.4,0.1,0.7c0.4,1.1,1.1,2.5,2.1,4.3
			c0.5,0.9,0.8,1.4,0.8,1.6c0.1,0.2,0.3,0.6,0.5,1.2c0.2,0.5,0.6,0.6,1,0.4c0.4-0.2,0.6-0.3,0.9-0.5c0.4-0.2,0.9-0.1,1.1,0.3
			s0.1,0.9-0.3,1.1c-0.3,0.2-0.7,0.3-1,0.5c-0.5,0.2-0.6,0.6-0.4,1c1.4,3.3,2.5,6.1,3.6,8c0.3,0.6,0.6,1,0.8,1.3
			c0,0,0.1,0.1,0.1,0.1c0,0.1,0.3,0.1,0.7,0c0.8-0.2,1.6-0.7,2.6-1.3c0.5-0.3,0.9-0.5,1.1-0.6c0.4-0.2,0.9,0,1,0.4s0,0.9-0.4,1
			c-0.2,0.1-0.6,0.3-1,0.6c-0.6,0.3-1.1,0.6-1.3,0.7c-1.1,0.6-2.1,0.9-2.8,0.9c-0.5,0-0.9-0.4-1.3-0.8c-0.3-0.3-0.6-0.8-0.9-1.5
			c-1.1-2.1-2.5-5.2-3.4-7.6c-0.5-1.2-0.9-2.2-1.2-3c-0.3-0.8-0.6-1.3-0.7-1.6c-0.1-0.1-0.3-0.6-0.8-1.4c-1.1-1.9-1.8-3.4-2.2-4.6
			c-0.2-0.8-0.4-1.6,0-2.1c0.1-0.2,0.3-0.3,0.6-0.5l2.3-1c1.7-0.7,2.7-1.1,2.8-1.2c0.4-0.2,0.9-0.1,1.1,0.3c0.1,0.2,0.1,0.4,0.1,0.6
			c-0.1,0.2-0.2,0.4-0.4,0.5c-0.2,0.1-1.2,0.5-3,1.3L71.1,86.4L71.1,86.4z"/>
		<path fill="#FFFFFF" d="M81.2,81.6c1.4,2.8,3.2,6.8,5.2,12c0.5,1.2,1.2,2.7,2.2,4.6c1.2,2.4,2,4,2.3,4.7c0.2,0.4,0,0.9-0.4,1
			s-0.9,0-1-0.4c-0.3-0.7-1.1-2.2-2.3-4.6c-1-1.9-1.7-3.5-2.2-4.8c-2.2-5.2-3.9-9.2-5.2-11.8c-0.2-0.4-0.1-0.9,0.3-1.1
			C80.5,81.1,81,81.2,81.2,81.6z"/>
		<path fill="#FFFFFF" d="M85.3,79.9c1.3,3.2,2.8,6.7,4.9,11.1c1,2.2,1.8,3.9,2.3,5.1c0.7,1.5,1,2.3,1.2,2.5c0.3,0.5,0.5,1,0.7,1.3
			c0,0.1,0.1,0.1,0.1,0.2c0.1,0.1,0.3,0.1,0.7,0c0.4-0.1,0.8-0.3,1.3-0.6c1.2-0.6,2.1-1,2.6-1.1c0.4-0.1,0.8,0.2,0.9,0.6
			s-0.2,0.8-0.6,0.9c-0.4,0.1-1,0.4-2.1,0.9c-1.2,0.6-2.1,0.8-2.7,0.9c-0.9-0.1-1.6-1.1-2.2-2.4c-0.1-0.2-0.5-1.1-1.2-2.6
			c-0.5-1.1-1.3-2.8-2.4-5.1c-2.1-4.5-3.6-7.9-5-11.2c-0.2-0.4,0-0.8,0.4-1C84.7,79.2,85.1,79.5,85.3,79.9z"/>
		<path fill="#FFFFFF" d="M120.1,79.3c0.4-0.2,0.9,0,1,0.4s0,0.9-0.4,1l0.1,0c-0.5,0.2-0.6,0.6-0.4,1.1c0.8,1.5,1.1,2.9,1.1,4.1
			c-0.1,1.7-0.8,3.4-2.1,4.5c-1.4,1.2-3.1,1.4-4.9,0.2c-2.1-1.4-4-5.4-3.9-8c0.1-0.5,0.1-0.9,0.3-1.3c0.1-0.5,0-0.8-0.4-1
			c-0.2-0.1-0.4-0.2-0.5-0.4c-1.7-1.3-2.6-4.4-2.7-7.3c0-2.9,0.8-4.7,2.6-4.8c1.4-0.2,2.9,0.8,3.8,2.1c0.5,0.6,0.7,1.4,0.7,2.1
			c0,0.4-0.4,0.8-0.8,0.8c-0.4,0-0.8-0.4-0.8-0.8c0.1-0.6-0.7-1.7-1.6-2.2c-0.9-0.6-1.7-0.4-2.1,0.3c-0.6,1.2-0.7,4,0.1,6.2
			c0.4,1.1,0.9,2,1.5,2.5c0.3,0.2,0.6,0.3,0.9,0.4c0.4,0,0.6-0.1,1-0.2c0.1,0,0.1,0,0.2,0c0.2-0.1,0.4-0.1,0.5-0.1
			c0.1,0,0.1,0,0.2,0c0.1,0.1,0.3,0.1,0.5,0.4c0.1,0.1,0.1,0.3,0.1,0.5c-0.1,0.2-0.1,0.3-0.2,0.4c0,0.1-0.1,0.1-0.1,0.1l-0.1,0
			c-0.1,0-0.2,0.1-0.3,0.1c-0.2,0.1-0.5,0.2-0.7,0.5c-0.7,1.1-0.8,2.9,0.5,5.4c1.3,2.8,3.4,4.4,5.2,2.9c0.9-0.7,1.5-2.1,1.5-3.3
			c0.1-0.9-0.3-2.1-0.9-3.4c-0.2-0.4-0.3-0.7-1.1-0.3c-0.3,0.2-0.5,0.3-0.7,0.4c-0.3,0.2-0.4,0.5-0.8,0.5c-0.2,0-0.5-0.1-0.7-0.3
			c-0.3-0.3-0.2-0.8,0.1-1.1c0.4-0.3,0.9-0.7,1.3-0.9c0.4-0.2,1.1-0.6,1.4-0.7L120.1,79.3z"/>
		<path fill="#FFFFFF" d="M138.2,61.4c3.3,5.3,6.2,10.6,8.7,16.1c0.2,0.4,0,0.9-0.4,1c-0.4,0.2-0.9,0-1-0.4c-1.5-3.4-3.2-6.7-5-9.9
			c-0.2-0.4-0.6-0.5-1.1-0.4c-0.9,0.3-1.8,0.7-2.7,1.1c-0.4,0.2-0.6,0.5-0.5,1c0.5,1.4,1.2,3.5,2.2,6c1,2.7,1.6,4.3,1.7,4.8
			c0.1,0.4-0.1,0.8-0.5,1c-0.4,0.1-0.8-0.1-1-0.5c-0.1-0.3-0.6-1.9-1.6-4.7c-2.2-6.2-3.8-10.5-4.6-13.9c-0.5-2.1-0.7-3.7,0-4.5
			c1.2-1.5,2.7-1,3.8,0.4c0.5,0.6,1,1.4,1.6,2.3L138.2,61.4z M136.2,67.4c0.7-0.3,1.4-0.6,2.2-0.9c0.5-0.2,0.7-0.6,0.4-1
			c-0.7-1.1-1.3-2.1-2-3.2c-0.1-0.2-0.7-1.3-1.1-2c-0.3-0.5-0.8-1-1.2-1.4c-0.3-0.2-0.6-0.4-0.8-0.1c-0.1,0.2-0.2,0.5-0.2,1.1
			c0,0.6,0.1,1.4,0.4,2.3c0.3,1.3,0.8,2.8,1.4,4.7C135.4,67.4,135.7,67.6,136.2,67.4z"/>
		<path fill="#FFFFFF" d="M153.2,67.8c-0.4-0.9-1.2-2.5-2.3-4.7c-2.2-4.5-3.6-7.7-4.6-11c-0.1-0.4,0.1-0.8,0.5-1
			c0.4-0.1,0.8,0.1,1,0.5c0.9,3.2,2.3,6.3,4.5,10.7c1.1,2.2,1.9,3.8,2.3,4.8l1.3,2.8c0.3,0.7,0.5,1.2,0.6,1.6
			c0.1,0.2,0.1,0.4,0.1,0.5c0.1,0.4,0.1,0.6-0.2,0.9c-0.2,0.3-0.6,0.3-0.9,0.3c-0.1,0-0.1-0.1-0.2-0.1s-0.2-0.1-0.3-0.2
			c-0.1-0.1-0.2-0.2-0.3-0.4l-1-1.1l-2.2-2.4c-1.2-1.3-2.7-3-4.3-5.2c-0.8-1.1-1.6-2.1-2.2-2.8c-0.4-0.5-1.6-1.7-1.6-1.7
			c0.4,1,0.7,1.8,1,2.4c0.4,1,1.1,2.5,2,4.6c0.9,2.2,1.5,3.8,2,4.8c0.5,1.1,1.2,2.5,2.2,4.3c0.2,0.4,0.1,0.9-0.2,1.1
			c-0.4,0.2-0.9,0.1-1.1-0.2c-0.7-1.1-1.4-2.5-2.2-4.2s-1.5-3.5-2.3-5.5c-0.8-2-1.4-3.4-1.8-4.3c-0.2-0.5-0.6-1.4-1-2.5
			c-0.4-1-0.7-1.8-1-2.4l-0.7-1.6c0,0,0,0,0-0.1c0,0-0.1-0.1-0.2-0.2c-0.2-0.4-0.4-0.7-0.1-1.2c0.1-0.2,0.3-0.3,0.6-0.3
			c0.4-0.1,0.8,0.1,1.1,0.5c0.1,0.1,0.1,0.2,0.2,0.3c0,0,0.1,0,0.1,0.1c0,0,0.1,0.2,0.4,0.4c0.2,0.2,0.5,0.5,0.8,0.9
			c0.5,0.5,0.9,1,1.2,1.3c0.3,0.4,6,8,8.4,10.5l-0.8-0.9c0.5,0.6,1.5,1.4,1.5,1.3L153.2,67.8z"/>
		<path fill="#FFFFFF" d="M163.8,63c-0.4-0.9-1.2-2.5-2.3-4.7c-2.2-4.5-3.6-7.7-4.6-11c-0.1-0.4,0.1-0.8,0.5-1
			c0.4-0.1,0.8,0.1,1,0.5c0.9,3.2,2.3,6.3,4.5,10.7c1.1,2.2,1.9,3.8,2.3,4.8l1.3,2.8c0.3,0.7,0.5,1.2,0.6,1.6
			c0.1,0.2,0.1,0.4,0.1,0.5c0.1,0.4,0.1,0.6-0.2,0.9c-0.2,0.3-0.6,0.3-0.9,0.3c-0.1,0-0.1-0.1-0.2-0.1c-0.1,0-0.2-0.1-0.3-0.2
			c-0.1-0.1-0.2-0.2-0.3-0.4l-1-1.1l-2.2-2.4c-1.2-1.3-2.7-3-4.3-5.2c-0.8-1.1-1.6-2.1-2.2-2.8c-0.4-0.5-1.6-1.7-1.6-1.7
			c0.4,1,0.7,1.8,1,2.4c0.4,1,1.1,2.5,2,4.6c0.9,2.2,1.5,3.8,2,4.8c0.5,1.1,1.2,2.5,2.2,4.3c0.2,0.4,0.1,0.9-0.2,1.1
			c-0.4,0.2-0.9,0.1-1.1-0.2c-0.7-1.1-1.4-2.5-2.2-4.2s-1.5-3.5-2.3-5.5c-0.8-2-1.4-3.4-1.8-4.3c-0.2-0.5-0.6-1.4-1-2.5
			c-0.4-1-0.7-1.8-1-2.4l-0.7-1.6c0,0,0,0,0-0.1c0,0-0.1-0.1-0.2-0.2c-0.2-0.4-0.4-0.7-0.1-1.2c0.1-0.2,0.3-0.3,0.6-0.3
			c0.4-0.1,0.8,0.1,1.1,0.5c0.1,0.1,0.1,0.2,0.2,0.3c0,0,0.1,0,0.1,0.1c0,0,0.1,0.2,0.4,0.4c0.2,0.2,0.5,0.5,0.8,0.9
			c0.5,0.5,0.9,1,1.2,1.3c0.3,0.4,6,8,8.4,10.5l-0.8-0.9c0.5,0.6,1.5,1.4,1.5,1.3L163.8,63z"/>
		<path fill="#FFFFFF" d="M163.3,44.5c1.4,2.8,3.2,6.8,5.2,12c0.5,1.2,1.2,2.7,2.2,4.6c1.2,2.4,2,4,2.3,4.7c0.2,0.4,0,0.9-0.4,1
			s-0.9,0-1-0.4c-0.3-0.7-1.1-2.2-2.3-4.6c-1-1.9-1.7-3.5-2.2-4.8c-2.2-5.2-3.9-9.2-5.2-11.8c-0.2-0.4-0.1-0.9,0.3-1.1
			C162.7,43.9,163.2,44.1,163.3,44.5z"/>
		<path fill="#FFFFFF" d="M168.6,42.3c-0.4,0.2-0.6,0.3-0.6,0.3c0,0.2,0.1,0.4,0.1,0.7c0.4,1.1,1.1,2.5,2.1,4.3
			c0.5,0.9,0.8,1.4,0.8,1.6c0.1,0.2,0.3,0.6,0.5,1.2c0.2,0.5,0.6,0.6,1,0.4c0.4-0.2,0.6-0.3,0.9-0.5c0.4-0.2,0.9-0.1,1.1,0.3
			s0.1,0.9-0.3,1.1c-0.3,0.2-0.7,0.3-1,0.5c-0.5,0.2-0.6,0.6-0.4,1c1.4,3.3,2.5,6.1,3.6,8c0.3,0.6,0.6,1,0.8,1.3
			c0,0,0.1,0.1,0.1,0.1c0,0.1,0.3,0.1,0.7,0c0.8-0.2,1.6-0.7,2.6-1.3c0.5-0.3,0.9-0.5,1.1-0.6c0.4-0.2,0.9,0,1,0.4s0,0.9-0.4,1
			c-0.2,0.1-0.6,0.3-1,0.6c-0.6,0.3-1.1,0.6-1.3,0.7c-1.1,0.6-2.1,0.9-2.8,0.9c-0.5,0-0.9-0.4-1.3-0.8c-0.3-0.3-0.6-0.8-0.9-1.5
			c-1.1-2.1-2.5-5.2-3.4-7.6c-0.5-1.2-0.9-2.2-1.2-3c-0.3-0.8-0.6-1.3-0.7-1.6c-0.1-0.1-0.3-0.6-0.8-1.4c-1.1-1.9-1.8-3.4-2.2-4.6
			c-0.2-0.8-0.4-1.6,0-2.1c0.1-0.2,0.3-0.3,0.6-0.5l2.3-1c1.7-0.7,2.7-1.1,2.8-1.2c0.4-0.2,0.9-0.1,1.1,0.3c0.1,0.2,0.1,0.4,0.1,0.6
			c-0.1,0.2-0.2,0.4-0.4,0.5c-0.2,0.1-1.2,0.5-3,1.3L168.6,42.3L168.6,42.3z"/>
	</g>
	<g>
		<path fill="#FFFFFF" d="M97.2,172.6c0.4,0.6,0.8,1.1,1.2,1.6c1.2,1.5,0.6-0.4,0.3-1c-1.1-3.5-1.9-5.7-2.2-6.6
			c-0.1-0.3-0.2-0.5-0.3-0.7c-0.4-0.6-0.5-0.8-0.5-1.3c0-0.5,0.2-0.8,0.6-1c0.2-0.1,0.4-0.1,0.6,0c0.2,0,0.3,0.1,0.4,0.3
			c0.1,0.1,0.2,0.2,0.4,0.4c0.2,0.2,0.6,0.7,0.8,1c1.6,1.9,3.4,4,5.3,5.5c2.1,1.7,0.8-0.5,0.8-0.5c-3.2-5.2-5.5-10.4-6.7-15.6
			c-0.1-0.4,0.2-0.9,0.6-1c0.4-0.1,0.9,0.2,0.9,0.6c1.2,5,3.4,10.1,6.6,15.2c1.2,1.9,2,3.4,2.3,4.2c0.1,0.3,0.2,0.5,0.2,0.7
			c0.1,0.3,0.1,0.7-0.2,1c-0.2,0.2-0.5,0.3-0.8,0.2c-0.2,0-0.3-0.1-0.5-0.2c-0.3-0.2-0.9-0.6-1.2-0.9c-2.1-1.7-4.2-3.5-6-5.4
			c-1.2-1.3-1.4-1.4-0.8,0.4l1.1,3.1l1.4,4.1c0.2,0.6,0.3,1.1,0.4,1.4l0.1,0.5l0,0.2c0,0.1,0,0.1,0,0.2c0,0.3-0.3,0.8-0.9,0.8
			c-0.1,0-0.2,0-0.3-0.1l-0.1-0.1l-0.2-0.2c-0.1-0.1-0.3-0.2-0.4-0.4c-0.4-0.4-0.8-0.9-1.4-1.6c-0.5-0.6-1.5-1.9-2.9-3.8l-3.4-4.8
			c-1.5-2.1-2.4-3.3-2.7-3.7c-0.2-0.3-0.5-0.7-0.9-1.2c-0.9-1.1-1.6-2-2.1-3c-0.2-0.4,0-0.9,0.4-1.1c0.4-0.2,0.8,0,1,0.4
			c0.5,0.9,1,1.6,1.9,2.7c0.4,0.5,0.8,1,1,1.3c0.3,0.4,1.2,1.7,2.7,3.7L97.2,172.6z"/>
		<path fill="#FFFFFF" d="M104.2,151.2c-0.4,0.2-0.6,0.3-0.6,0.4c0,0.2,0.1,0.4,0.2,0.7c0.5,1.1,1.3,2.4,2.5,4.1
			c0.5,0.8,0.9,1.3,1,1.5c0.1,0.2,0.3,0.6,0.7,1.2c0.2,0.5,0.6,0.6,1,0.4c0.3-0.2,0.6-0.3,0.9-0.5c0.4-0.2,0.9-0.1,1.1,0.2
			c0.2,0.4,0.1,0.9-0.2,1.1c-0.3,0.2-0.6,0.4-1,0.6c-0.4,0.2-0.5,0.6-0.3,1.1c1.7,3.2,3.1,5.8,4.2,7.6c0.4,0.6,0.6,1,0.9,1.2
			c0,0,0.1,0.1,0.1,0.1c0,0.1,0.3,0.1,0.7-0.1c0.8-0.3,1.6-0.9,2.5-1.5c0.5-0.3,0.8-0.6,1.1-0.7c0.4-0.2,0.9-0.1,1.1,0.3
			c0.2,0.4,0.1,0.9-0.3,1.1c-0.2,0.1-0.5,0.3-1,0.6c-0.6,0.4-1,0.7-1.3,0.8c-1.1,0.7-2,1.1-2.7,1.1c-0.5,0.1-1-0.3-1.3-0.7
			c-0.3-0.3-0.7-0.8-1.1-1.4c-1.3-2-2.9-5-4.1-7.3c-0.6-1.1-1.1-2.1-1.5-2.9c-0.4-0.8-0.7-1.3-0.8-1.5c-0.1-0.1-0.4-0.6-0.9-1.4
			c-1.2-1.8-2.1-3.2-2.6-4.4c-0.3-0.8-0.5-1.5-0.2-2.1c0.1-0.2,0.3-0.3,0.5-0.5l2.2-1.2c1.7-0.8,2.6-1.3,2.7-1.4
			c0.4-0.3,0.8-0.2,1.1,0.2c0.1,0.2,0.2,0.4,0.2,0.6c-0.1,0.2-0.2,0.4-0.3,0.5c-0.2,0.1-1.1,0.6-2.9,1.5L104.2,151.2L104.2,151.2z"
			/>
		<path fill="#FFFFFF" d="M112.3,145.7c1.6-0.8,2.9-0.6,4.8,0.1c3.5,1.3,6,4.2,7.4,8.5c1.2,3.6,1.3,7.8,0.7,11.4
			c0,0.2-0.1,0.3-0.2,0.4c-0.2,0.2-0.7,0.5-0.7,0.5c-0.3,0.1-0.6,0.1-0.9-0.1c0-0.1-0.1-0.1-0.1-0.1c-1.7-2.6-3.7-5.8-5.9-9.7
			c-0.8-1.4-3.9-7.4-5.3-9.9l0-0.1C111.7,146.4,111.9,146,112.3,145.7L112.3,145.7z M123.9,162.8c0.4-6.4-1.8-13.4-7.4-15.5
			c-0.7-0.2-1.2-0.4-1.7-0.5c-0.6-0.1-0.8,0.4-0.5,0.9c1.4,2.5,3.6,6.8,4.4,8.2c1.5,2.7,2.9,5.1,4.1,7.1
			C123.2,163.7,123.9,163.6,123.9,162.8z"/>
		<path fill="#FFFFFF" d="M121.7,140.4c1.6-0.8,2.9-0.6,4.8,0.1c3.5,1.3,6,4.2,7.4,8.5c1.2,3.6,1.3,7.8,0.7,11.4
			c0,0.2-0.1,0.3-0.2,0.4c-0.2,0.2-0.7,0.5-0.7,0.5c-0.3,0.1-0.6,0.1-0.9-0.1c0-0.1-0.1-0.1-0.1-0.1c-1.7-2.6-3.7-5.8-5.9-9.7
			c-0.8-1.4-3.9-7.4-5.3-9.9l0-0.1C121.2,141.1,121.3,140.6,121.7,140.4L121.7,140.4z M133.4,157.5c0.4-6.4-1.8-13.4-7.4-15.5
			c-0.7-0.2-1.2-0.4-1.7-0.5c-0.6-0.1-0.8,0.4-0.5,0.9c1.4,2.5,3.6,6.8,4.4,8.2c1.5,2.7,2.9,5.1,4.1,7.1
			C132.7,158.4,133.3,158.3,133.4,157.5z"/>
		<path fill="#FFFFFF" d="M132.6,134.9c1.7,2.7,3.8,6.5,6.3,11.5c0.6,1.1,1.4,2.6,2.6,4.4c1.4,2.3,2.3,3.8,2.8,4.5
			c0.2,0.4,0.1,0.9-0.3,1.1s-0.9,0.1-1.1-0.3c-0.4-0.6-1.3-2.1-2.7-4.4c-1.2-1.8-2-3.4-2.6-4.6c-2.6-5-4.6-8.8-6.2-11.3
			c-0.2-0.4-0.1-0.9,0.2-1.1C131.9,134.5,132.4,134.5,132.6,134.9z"/>
		<path fill="#FFFFFF" d="M149.6,145c-0.5-0.8-1.4-2.4-2.7-4.5c-2.6-4.3-4.3-7.4-5.5-10.6c-0.2-0.4,0-0.8,0.5-1c0.4-0.2,0.8,0,1,0.5
			c1.2,3.1,2.8,6.1,5.4,10.3c1.3,2.1,2.2,3.6,2.7,4.6l1.5,2.7c0.3,0.6,0.6,1.1,0.8,1.5c0.1,0.2,0.1,0.4,0.2,0.5
			c0.1,0.3,0.1,0.6-0.1,0.9c-0.2,0.3-0.6,0.4-0.8,0.3c-0.1,0-0.1-0.1-0.2-0.1c-0.1,0-0.2-0.1-0.3-0.2c-0.1-0.1-0.2-0.2-0.4-0.3
			l-1.1-1l-2.4-2.2c-1.3-1.2-2.9-2.8-4.8-4.8c-0.9-1-1.8-1.9-2.4-2.6c-0.5-0.5-1.7-1.6-1.7-1.6c0.5,1,0.9,1.8,1.2,2.3
			c0.5,0.9,1.3,2.4,2.4,4.4c1,2.1,1.9,3.6,2.4,4.6c0.6,1,1.4,2.4,2.6,4c0.3,0.4,0.2,0.9-0.1,1.1c-0.4,0.3-0.9,0.2-1.1-0.1
			c-0.8-1.1-1.7-2.4-2.5-3.9c-0.9-1.6-1.8-3.3-2.8-5.3c-1-1.9-1.7-3.3-2.2-4.1c-0.3-0.5-0.7-1.3-1.2-2.4c-0.5-1-0.9-1.8-1.2-2.3
			l-0.9-1.6c0,0,0,0,0-0.1c0,0-0.1-0.1-0.2-0.2c-0.2-0.4-0.4-0.7-0.2-1.2c0.1-0.2,0.3-0.3,0.6-0.4c0.4-0.1,0.8,0,1.1,0.4
			c0.1,0,0.1,0.2,0.2,0.3c0,0,0.1,0,0.1,0c0,0,0.1,0.2,0.4,0.4c0.2,0.2,0.5,0.5,0.9,0.8c0.6,0.5,1,0.9,1.3,1.2
			c0.3,0.4,6.7,7.4,9.3,9.7l-0.9-0.8c0.6,0.5,1.7,1.3,1.6,1.1L149.6,145z"/>
		<path fill="#FFFFFF" d="M156.8,137.4c0.3-0.2,0.5-0.3,0.7-0.3c1.5-0.7,2.5-0.2,3.6,2.1c1.1,2.2,1.7,5,0.8,6.5
			c-1.2,2-4.1,1.4-7.3-2.2c-2.8-3.2-5.9-8.3-7.2-12.2c-0.8-2.3-0.9-4-0.4-5c0.9-1.7,2.3-2.1,3.8-1.7c1.4,0.4,2.5,1.6,2.7,3.2
			c0,0.4-0.2,0.8-0.7,0.8c-0.4,0.1-0.8-0.2-0.9-0.7c-0.1-0.8-0.8-1.6-1.7-1.8c-0.9-0.3-1.6,0-2,0.8c-0.6,1.4,0.7,5.4,3.4,9.9
			c2.7,4.4,5.6,7.9,7.2,8.3c1.6,0.4,2-0.4,1.7-2.4c-0.3-2-1.5-4.1-2.1-4.4c-0.2-0.1-0.6,0.2-1,0.4c-0.3,0.2-0.5,0.3-0.5,0.3
			c-0.4,0.2-0.9,0.1-1.1-0.3c-0.2-0.4-0.1-0.9,0.3-1.1L156.8,137.4z"/>
		<path fill="#FFFFFF" d="M174.5,111.7c0.2,0.4,0.1,0.9-0.2,1.1c-0.6,0.4-1.6,0.9-2.8,1.6c-0.5,0.2-0.5,0.6-0.3,1
			c0.5,0.7,1,1.5,1.5,2.5c0.4,0.7,0.6,1.2,0.7,1.4c0.5,0.9,1.3,2.4,2.3,4.4c2.1,4.1,3.8,7.1,5.5,9.3c0.2,0.4,0.2,0.9-0.1,1.1
			c-0.4,0.2-0.9,0.2-1.1-0.1c-1.8-2.3-3.6-5.5-5.7-9.6c-1.1-2-1.8-3.5-2.3-4.3c-0.2-0.3-0.4-0.8-0.8-1.5c-0.3-0.6-0.6-1.1-0.8-1.5
			c0.5,0.9-0.6-0.6-0.8-0.9c-0.2-0.4-0.6-0.5-1.1-0.3c-0.7,0.4-1.3,0.7-1.8,1.1c-0.4,0.3-0.8,0.2-1.1-0.2c-0.2-0.4-0.1-0.8,0.2-1.1
			c0.9-0.6,2.1-1.3,3.8-2.2c1.8-0.9,3-1.6,3.7-2C173.8,111.2,174.3,111.3,174.5,111.7z"/>
		<path fill="#FFFFFF" d="M179.1,108.7c1.7,2.7,3.8,6.5,6.3,11.5c0.6,1.1,1.4,2.6,2.6,4.4c1.4,2.3,2.4,3.8,2.8,4.5
			c0.2,0.4,0.1,0.9-0.3,1.1c-0.4,0.2-0.9,0.1-1.1-0.3c-0.4-0.6-1.3-2.1-2.7-4.4c-1.2-1.8-2-3.4-2.6-4.5c-2.6-5-4.6-8.8-6.2-11.3
			c-0.2-0.4-0.1-0.9,0.2-1.1S178.9,108.4,179.1,108.7z"/>
		<path fill="#FFFFFF" d="M182,107.9c-0.1-0.1-0.1-0.3-0.1-0.4c-0.1-0.2,0-0.4,0.1-0.6c0.3-0.4,0.7-0.5,1.3-0.4c0.1,0,0.1,0,0.2,0.1
			c0,0,0-0.1-0.1-0.1c0.3,0.2,0.5,0.3,0.8,0.5c1.1,0.5,2.3,1.2,3.9,2.3l1.7,1.1c0.2,0.1,0.4,0.3,0.6,0.5c0.3,0.2,0.5-0.3,0.3-0.9
			l-0.1-0.5c-0.6-3-1-4.9-1-6l0-0.1c0,0,0-0.1,0-0.2c0-0.1-0.1-0.5-0.1-0.6c0-0.1,0-0.1,0-0.1c0.2-0.8,0.9-0.9,1.4-0.6
			c0.1,0.1,0.2,0.2,0.3,0.2c0.1,0.2,0.3,0.3,0.4,0.6c0.6,0.8,1.7,2.7,2.7,4.5l2.9,5.1c0.6,1,2.1,3.6,2.9,5s2.1,3.3,3.1,4.8
			c0.2,0.4,0.2,0.8-0.2,1.1c-0.4,0.2-0.8,0.2-1.1-0.2c-1.1-1.6-2.3-3.5-3.1-4.8c-0.8-1.3-2.4-4.1-2.9-5.1L193,108
			c-0.2-0.4-0.5-0.9-0.8-1.4c-0.9-1.7-0.5,0.4-0.4,1.2c0.1,0.4,0.2,0.8,0.3,1.3l0.6,2.8c0.1,0.4,0.2,0.7,0.2,0.9c0,0,0,0.1,0,0.2
			c0,0.1,0,0.2,0,0.3c0,0.1,0,0.1,0,0.1c0,0,0,0.2-0.2,0.5c-0.2,0.2-0.4,0.3-0.8,0.2c-0.1,0-0.1,0-0.2-0.1l-0.1,0l-0.1-0.1
			c-0.1,0-0.1-0.1-0.2-0.2l-0.7-0.6c-0.8-0.6-1.4-1.1-1.8-1.3c-0.1-0.1-0.8-0.5-1.9-1.3c-0.5-0.3-0.9-0.6-1.3-0.8
			c-0.3-0.2-1.2-0.7-1.2-0.6c0.2,0.4,0.6,0.9,1,1.6c0.4,0.7,0.7,1.2,0.9,1.4c1,1.6,2.4,4,4.2,7.4c1.7,3.3,3.1,5.7,4.1,7.3
			c0.2,0.4,0.1,0.9-0.2,1.1s-0.9,0.1-1.1-0.2c-1-1.6-2.4-4.1-4.2-7.4c-1.8-3.3-3.2-5.8-4.1-7.3c-0.1-0.2-0.4-0.7-0.9-1.4
			c-0.9-1.4-1.5-2.3-1.9-3L182,107.9z"/>
		<path fill="#FFFFFF" d="M196.7,99.1c-0.4,0.2-0.6,0.3-0.6,0.4c0,0.2,0.1,0.4,0.2,0.7c0.5,1.1,1.3,2.4,2.5,4.1
			c0.5,0.8,0.9,1.3,1,1.5c0.1,0.2,0.3,0.6,0.7,1.2c0.2,0.5,0.6,0.6,1,0.3c0.3-0.2,0.6-0.3,0.9-0.5c0.4-0.2,0.9-0.1,1.1,0.2
			c0.2,0.4,0.1,0.9-0.2,1.1c-0.3,0.2-0.6,0.4-1,0.6c-0.4,0.2-0.5,0.6-0.3,1.1c1.7,3.2,3.1,5.8,4.2,7.6c0.4,0.6,0.6,1,0.9,1.2
			c0,0,0.1,0.1,0.1,0.1c0,0.1,0.3,0.1,0.7-0.1c0.8-0.3,1.6-0.9,2.5-1.5c0.5-0.3,0.8-0.6,1.1-0.7c0.4-0.2,0.9-0.1,1.1,0.3
			c0.2,0.4,0.1,0.9-0.3,1.1c-0.2,0.1-0.5,0.3-1,0.6c-0.6,0.4-1,0.7-1.3,0.8c-1.1,0.7-2,1.1-2.7,1.1c-0.5,0.1-1-0.3-1.3-0.7
			c-0.3-0.3-0.7-0.8-1.1-1.4c-1.3-2-2.9-5-4.1-7.3c-0.6-1.1-1.1-2.1-1.5-2.9c-0.4-0.8-0.7-1.3-0.8-1.5c-0.1-0.1-0.4-0.6-0.9-1.4
			c-1.2-1.8-2.1-3.2-2.6-4.4c-0.3-0.8-0.5-1.5-0.2-2.1c0.1-0.2,0.3-0.3,0.5-0.5l2.2-1.2c1.7-0.8,2.6-1.3,2.7-1.4
			c0.4-0.3,0.8-0.2,1.1,0.2c0.1,0.2,0.2,0.4,0.2,0.6c-0.1,0.2-0.2,0.4-0.3,0.5c-0.2,0.1-1.1,0.6-2.9,1.5L196.7,99.1L196.7,99.1z"/>
	</g>
	<path fill="#FFFFFF" d="M44.2,137.7c-3.1,0.3-6.2-0.7-9.2-2.3c1.8-1.3,3-3.6,3.2-5.8c0.3-3.7-2.4-6.7-2.9-10.3
		c-0.2-1.2-2-0.8-2,0.3c-0.1,3.1-2.7,5.5-3.2,8.5c-0.2,1.4-0.1,2.9,0.3,4.3c-2.8-2.2-5.3-4.8-7.3-7.3c2.4-0.9,4.5-3.4,5.7-5.5
		c1.7-3.1,2.1-6.7,1.1-10c-0.3-0.9-1.8-1-2,0c-0.6,3.1-4.3,4.2-6.2,6.4c-1.2,1.4-1.9,3.2-1.6,4.9c-1.8-2.9-3.3-5.9-4.3-9
		c7.1-0.5,11.9-7.1,10.1-14.1c-0.2-0.6-0.9-0.8-1.4-0.6c-4.3,2.3-7.6,6.2-9.7,10.6c-0.1-0.1-0.2-0.2-0.2-0.2
		c-0.6-2.7-1.1-5.5-1.3-8.3c0,0,0-0.1,0-0.1c0.1,0,0.1-0.1,0.2-0.2c5.3-5.6,3.1-13.1,0.6-19.4c-0.2-0.6-1.3-1-1.7-0.2
		c-1.7,4.1-5.6,7.6-5.6,12.3c0,3.3,1.9,6.5,4.9,7.7c0,2.2,0.1,4.3,0.5,6.5c-3.3-2-7.4-2.9-11.1-2.7c-0.7,0-1.1,0.6-1,1.3
		c1,6.3,7.8,10.1,13.4,6.9c0.9,3.1,2.2,6,3.8,8.8c-0.4-0.1-0.8-0.2-1.2-0.2c-4.2-0.4-7.4,2.9-11.3,3.6c-0.9,0.2-1.1,1.6-0.3,2
		c4.8,2.5,12.5,5.2,15.9-0.5c0.2,0.2,0.4,0.5,0.6,0.7c1.8,2.4,4.5,5.2,7.5,7.8c-3.8-0.5-8,1-11.4,2.4c-0.7,0.3-1.2,1.6-0.3,2
		c5.2,2.2,12.4,4.3,16.1-1.3c3.8,2.3,7.8,3.5,11.6,2.5C45,138.7,44.9,137.6,44.2,137.7z M24.2,99.5c0.5,5-2.9,9.3-7.9,10
		c0-0.1,0-0.1-0.1-0.2c-0.1-0.2-0.3-0.4-0.5-0.6C17.9,105,20.7,102,24.2,99.5z M12,97.3C11.9,97.4,11.9,97.4,12,97.3
		c-2.8-2.7-3.9-5.9-1.9-10c0.9-1.8,2.1-3.5,3-5.3C14.8,87.2,16.1,93,12,97.3z M2.3,104.9c4.1,0.1,7.3,1.5,10.4,3.8
		c0.1,0.4,0.2,0.8,0.3,1.2C8.4,111.6,3.7,109.5,2.3,104.9z M7.9,124.5c4-1.7,8.4-4.8,11.3-0.5C16.1,127.4,11.6,126.2,7.9,124.5z
		 M21.3,122.6c0.1-0.1,0.2-0.2,0.2-0.3c-0.1-4.4,2-5.6,5.2-7.9c0.6-0.5,1.2-0.9,1.7-1.5c0,1.9-0.4,3.8-1.4,5.5
		c-1.4,2.4-3.2,3.4-5.3,4.7C21.6,123,21.4,122.8,21.3,122.6z M33.4,125.1c0.4-0.7,0.7-1.3,1-1.9c0.4,1,0.8,1.9,1.2,3
		c1.2,3.5,0,5.9-2.5,8.1c-0.1-0.1-0.2-0.1-0.3-0.2C31.6,130.7,31.7,128.3,33.4,125.1z M20.3,136.7c3.6-1.3,7.3-2,11-0.7
		C28.4,138.9,24,138,20.3,136.7z"/>
	<path fill="#FFFFFF" d="M47.1,197.1c-2.6-4-6.9-10.1-12.4-9.3c0-0.3-0.3-0.6-0.6-0.7c-1.1-2-1.9-4.2-2.3-6.5
		c2.5,3.7,10.3,3.5,13.7,5.2c0.5,0.3,1.4,0,1.3-0.8c-0.7-7.8-8.6-12.5-15.5-9.4c0-4.5,1.1-9.2,3.1-13.3c0.1,0.2,0.1,0.4,0.2,0.5
		c1.3,3.3,5,4.4,6.9,7.3c0.5,0.7,1.6,0.6,1.9-0.2c0.9-3.7,1.7-8.3-1.2-11.3c-1-1.1-2.6-1.9-4.1-2c2.1-2.7,4.6-5,7.5-6.7
		c0.4-0.3,0.1-1.1-0.4-0.9c-4.1,1.5-7.2,4.4-9.6,7.8c-0.3,0.1-0.5,0.2-0.7,0.4c-1.8-1.6-4.3-2.1-6.8-1.5c-1.4,0.4-2.6,1.1-3.6,2.1
		c-1.5,1.6-1.8,5.6-4.5,5.7c-1,0-1.5,1.5-0.5,2c2.9,1.4,6.1,1.6,9.1,0.3c1.3-0.6,2.5-1.5,3.6-2.6c-0.4,1-0.8,2-1.1,3
		c-1.1,3.3-2,7.2-2,11.1c-7.1-2-6.1,11-9.1,14.1c-0.7,0.7,0,1.9,1,1.7c3.9-0.8,8.1-4.3,9.6-8.5c0.6,1.3,1.4,2.4,2.5,3.4
		c-1.4,2.4-0.5,5.5,1.4,7.5c3,3.2,7.8,3.1,11.9,2.9C46.9,198.4,47.4,197.7,47.1,197.1z M44.7,183.7c-4.4-1.4-11.6-1.1-12.5-6.1
		C37.5,175.5,43.2,178.1,44.7,183.7z M41.5,161.2c1,2,0.8,4.2,0.3,6.4c-2.5-2.3-6.7-5.1-5.9-8c0.2-0.3,0.3-0.5,0.5-0.8
		C38.4,158.2,40.4,159.1,41.5,161.2z M31,161.4c-2.2,2.4-5.1,3.5-8.1,3c0.9-0.9,1.5-2.2,2.2-3.6c1.6-3.3,5.6-4.4,8.7-2.7
		C32.8,159.1,31.9,160.4,31,161.4z M27.4,186.2c-1,1.8-2.5,3.1-4.3,4c0.4-1,0.7-2,0.8-3.1c0.5-2.9,0.7-8.7,4.8-8.5
		C28.8,181.4,28.9,183.6,27.4,186.2z M37.2,195.2c-2.1-1.2-3.1-3.3-2.9-5.6c2.7,0.3,4.8,0.9,7,2.8c1.3,1.2,2.4,2.7,3.4,4.2
		C42.1,196.7,39.4,196.5,37.2,195.2z"/>
	<path fill="#FFFFFF" d="M233.1,23.4c-1.4,3.8-6.5,4.9-8.6,8c0.2-2.9,0.1-5.9-0.2-8.8c3.7-5.2-0.6-11.9-4.1-16
		c-0.5-0.6-1.5-0.2-1.7,0.4c-1.3,3.5-2.5,7.5-0.9,11.1c0.9,2.2,2.6,3.8,4.8,4.3c-0.2,0.5,0,0.9,0.4,1.1c0.2,2.2,0.2,4.4,0.1,6.5
		c-1.7-3.5-6.1-5.6-9.8-6.9c-1.2-0.4-1.6,1.4-0.5,1.9c3.6,1.5,2.9,6.7,5.2,9.4c1.1,1.3,2.7,2,4.2,1.8c-0.8,3.1-2.1,6.1-3.9,8.6
		c0-1.1-0.3-2.1-0.7-3c-1.4-3.3-4.8-5.2-8.2-6.1c-0.9-0.2-1.7,0.9-1,1.6c3.4,3.2,1.5,9.3,4.8,12.4c-1.1,0.8-2.4,1.6-3.8,2.3
		c-0.6,0.3-0.2,1.2,0.4,1c1.7-0.5,3.2-1.3,4.6-2.1c1.7,2.7,6.1,3,8.8,1.9c3.1-1.2,5-4.2,5.3-7.5c0-0.5-0.4-0.9-0.9-0.9
		c-2.8,0.2-5.5,0.8-8.1,1.8c1.8-2.4,3.1-5.1,4-8.1c3.1,0.8,6.3-0.4,8.3-2.9c2.8-3.3,3-7.8,3.4-11.9C235,22.5,233.4,22.4,233.1,23.4z
		 M212,42.2c-0.2-1.2-0.5-2.4-0.9-3.5c1.6,0.7,3,1.8,3.9,3.3c1.3,2.3,0.9,4.2-0.1,6.2c-0.3,0.3-0.6,0.5-0.9,0.8
		C212.4,47.3,212.4,44.5,212,42.2z M221.4,51.5c-2.4,0.5-3.9-0.5-5.9-1.3c0.4-0.2,0.8-0.5,1-0.9c0.2-0.2,0.4-0.4,0.6-0.5
		c2.9-1.2,5.9-2,9.1-2.2C225.6,48.9,223.8,50.9,221.4,51.5z M216.8,27.5c-0.1-0.2-0.2-0.5-0.3-0.7c3,1.5,5.4,3.8,5.1,7.5
		c0,0.3,0.1,0.5,0.4,0.7C218.6,35.6,217.6,29.6,216.8,27.5z M222.9,21.1c-4.7-1.9-4.4-7.3-3.1-11.7
		C222.6,12.9,224.6,16.8,222.9,21.1z M223.7,36.6c0.1-0.4,0.2-0.7,0.2-1.1c0.4,0.2,1,0,1-0.6c0.1-4.1,4.8-5.3,7.8-7.8
		C231.9,32.2,229.5,38.2,223.7,36.6z"/>
	<path fill="#FFFFFF" d="M269.4,78.7c0,0-0.1,0-0.1-0.1c-1.2-3.7-3.1-6.8-5.5-9.5c4,1.1,8.2,1,12.4-0.4c0.7-0.2,1-1.1,0.4-1.6
		c-4.7-4.4-13.2-8.9-18.2-2.6c-3-2-6.3-3.4-9.8-4.3c3.8-1.3,7.2-4,11.3-3.2c0.9,0.2,1.6-0.9,0.9-1.6c-5.4-5.9-16-4.3-17.9,3.9
		c-2.9-0.2-5.9-0.1-8.8,0.5c1.8-2.5,2.4-6,1.8-8.8c-0.2-0.8-1.2-0.9-1.7-0.4c-3.2,2.7-7.2,6.6-6.4,11.2c-1,0.4-2,0.9-3,1.5
		c-0.5,0.3-0.1,0.9,0.4,0.7c0.9-0.4,1.9-0.8,2.9-1.1c-0.4,6,5.1,10.8,11.3,9.7c0.6-0.1,0.8-0.9,0.5-1.3c-2.1-3.7-4.9-6.9-8.3-9.3
		c0.2-0.1,0.3-0.2,0.5-0.3c3.4-0.8,6.9-1.1,10.3-0.8c-2.1,3.6,4.2,8.2,3.4,11.8c-0.2,1,0.9,1.5,1.6,0.9c2.5-2.2,3.8-5.5,2.9-8.8
		c-0.2-0.9-0.6-1.8-1.2-2.6c1.2,0.4,2.4,0.9,3.6,1.5c1.9,0.9,3.5,2,5,3.2c-3.9,4,1.4,10.7-1.8,15c-0.6,0.8,0.6,1.8,1.3,1.3
		c2.9-1.6,5-4.4,5.4-7.7c0.2-1.3,0.1-2.8-0.3-4.2c2,2.4,3.7,5.1,5.3,8.1c-1.9,1.2-2.6,3.6-1.9,5.8c1.6,5,8.7,5.8,9.1,11.5
		c0.1,0.9,1.4,1.2,1.6,0.2C278.3,90,275.4,82.8,269.4,78.7z M237.8,70.9c-4.6,0-8.2-3.9-7.5-8.5C233.3,64.8,235.9,67.7,237.8,70.9z
		 M230.3,60.6c-0.2-0.2-0.5-0.3-0.7-0.3c0.7-2.8,2.5-4.9,4.7-6.8c0,1.3-0.3,2.7-0.9,3.9C232.6,58.8,231.5,59.6,230.3,60.6z
		 M257.7,55.1c-4.1,0.5-7.6,3.8-11.6,4.4c-0.4-0.2-0.7-0.3-1.1-0.4C247.5,54,253.2,52,257.7,55.1z M247.8,70.5
		c-0.2-0.8-0.6-1.6-1.1-2.5c-1.3-2.1-3.5-4.4-2.5-6.9c0.3,0,0.7,0.1,1,0.2c1.6,1,2.9,2,3.5,4.2C249.1,67.3,248.7,69,247.8,70.5z
		 M260.9,75.3c-0.2,1.7-0.9,3.1-1.9,4.3c0.2-3.8-1.9-8.1-0.3-11.1C259.9,70.7,261.2,72.5,260.9,75.3z M261.3,66.7
		c-0.4-0.4-0.8-0.7-1.3-1c3.9-4.7,9.9-1.5,13.9,1.7C269.7,68.5,265.4,68.3,261.3,66.7z M273.4,90.5c-1.2-1-2.6-1.8-3.7-2.9
		c-1.8-1.7-3.8-5.2-0.9-7c0,0,0,0,0.1,0c4,2.8,6.4,7.3,6.6,12C274.9,91.9,274.2,91.2,273.4,90.5z"/>
	<path fill="#FFFFFF" d="M100.5,30.8c-2.2-1.7-5.5-3-8.6-2.9c-7.1-8.9-20.1-14.7-31.2-10.4c-3.4,1.3-6.5,4-7.6,7.5
		c-8-0.1-16.5,4-20.7,10.8c-4,6.5-4.2,15.9,1.5,21.4c0.6,0.6,1.7-0.2,1.2-0.9c-4.6-6.6-4.6-15.1,0.7-21.4c4.4-5.2,10.6-7,16.9-8.3
		c0,0.4-0.1,0.8-0.1,1.1c0,4,2.8,7.5,6.8,7.9c0.3,0,0.5-0.1,0.7-0.3c0.9-0.2,1.9-0.6,2.5-1.3c1.6-1.7,1.3-4.6,0-6.4
		c-1.5-2.1-4.5-3.1-7-2.6c0.7-1.7,1.9-3.4,3.8-4.5c4.1-2.5,9.6-2.5,14.1-1.6c6.4,1.2,12.3,4.6,17,9.2c-1.7,0.3-3.2,1.1-4.3,2.5
		c-2.2,2.7-1.4,7.9,2.6,8.3c5.3,0.6,6.2-5.3,4.5-9c1.8,0.2,3.6,0.8,5,1.6c4.5,2.7,7,7.9,6.5,13.1c-0.1,0.7,1.1,0.8,1.2,0.2
		C107,39.5,104.8,34.2,100.5,30.8z M55.5,26.8c2.5,0.3,5.5,0.6,6.2,3.6c0.2,1.2-0.1,2.5-1.3,3.1c-0.3,0.1-0.7,0.3-1.1,0.3
		c-3.5-1.4-4.8-4.4-4.3-7.3C55.2,26.7,55.4,26.8,55.5,26.8z M90.7,36.6c-3.2,0.1-4.4-1.1-3.7-3.5c0.6-0.8,1.3-1.5,1.9-2.3
		c0.7-0.5,1.6-0.8,2.4-0.9c0,0.1,0,0.1,0.1,0.2C92.5,32.2,92.7,34.9,90.7,36.6z"/>
	<path fill="#FFFFFF" d="M251.9,156c-0.8-0.9-2.3,0.3-1.6,1.3c5.2,8.3,3.3,18.5-5.1,23.8c-7,4.5-15,3.7-22.2,0.7
		c2.4-3.8,2.6-8.5-1.3-12.6c-0.4-0.4-1-0.2-1.3,0.1c-2.5-0.7-5.2,1.3-5.7,4.1c-0.5,3.2,2,7.9,5.4,8.9c-2.7,3-7.2,5-11.5,5.1
		c-3.8,0.1-13.9-1.6-17.9-5.8c0.5-0.1,1-0.2,1.4-0.4c0.5-0.2,0.7-0.9,0.4-1.3c0.7-0.5,1.4-1.2,1.9-2c1.3-2,1.7-5.1-0.4-6.7
		c-2-1.5-4.9-2-6.5,0.3c-1.4,1.9-1,4.5,0.2,6.5c-0.1,0.5-0.1,1-0.1,1.4c-4.6-0.6-8.5-2.8-10.7-7.5c-2.8-5.8-1.3-12.3,1.5-17.7
		c0.2-0.4-0.4-0.9-0.7-0.5c-4.4,5.6-5.8,13.4-2.4,19.9c2.5,4.6,7.8,8.3,13.1,8.2c3.7,5.8,18.4,8,22.8,7.4c4.1-0.5,8.1-2.8,10.7-6
		c8.1,4.5,18.2,4.8,26-0.9C256.1,176.2,258.8,164.1,251.9,156z M190.2,178.9c-0.3-0.7-0.7-1.5-1-2.2c0-0.1,0-0.2,0.1-0.3
		c0.1-0.3-0.2-0.5-0.4-0.5c-0.2-0.7-0.4-1.4-0.2-2.1c0.5-2.5,4.2-2.5,5.1-0.2c0.9,2.5-1.3,5.1-3.6,6.1
		C190.2,179.4,190.3,179.1,190.2,178.9z M217.2,176.2c-0.9-2.5,0.6-6,3.3-5.7c2.7,3.7,2.5,7.2,0.8,10
		C220,179.1,218,178.3,217.2,176.2z"/>
	<path fill="#FFFFFF" d="M183.4,193.9c-4-6.9-15.5-5.3-15.1,3.4c0.1,1.3,2,1.3,2.1,0c0.3-8.4,11.4-6.1,11.9,0.8
		c0.3,3.8-2.1,7.6-5.4,9.3c-6.6,3.4-14.6-1.6-17.7-7.5c-6.9-13.2,1.3-26.4,8-37.6c0.3-0.5-0.5-1.2-0.9-0.7
		c-7.4,8.5-13.4,19.8-11.8,31.4c1.3,9.4,8.8,18.7,19.1,17.8C181.3,210.1,187.6,201.1,183.4,193.9z"/>
	<path fill="#FFFFFF" d="M147.8,175.7c-0.1-0.8-1.3-0.8-1.3,0c-0.4,9.7-2.4,19.5-8.1,27.6c-3.1,4.3-11.6,10.4-15.9,3.6
		c-1.6-2.5-1.1-5.9,0.4-8.3c1.9-3.1,8.2-6.3,8.7,1c0.1,1.4,2.2,1.5,2.2,0c0.3-6.4-7.1-8.7-11.4-4.5c-4.3,4.2-5,12.3,0.5,15.7
		c6.5,4,13.7-0.9,17.4-6.3C146.1,196.3,148.7,185.6,147.8,175.7z"/>
	<path fill="#FFFFFF" d="M123.6,12.4c-3.2-7.7-11.7-13.1-19.9-9.6c-6.4,2.8-9.3,11.2-4.5,16.9c5.3,6.3,13.7,2.1,14.3-5.3
		c0.1-1.2-1.6-1.3-2-0.3c-0.7,2-1.3,3.4-3,4.8c-2.4,2-6,1.4-7.9-1.4c-1.5-2.3-1.7-5.5-0.6-8c2.7-6.2,10.8-6.8,15.9-3.3
		c11.7,7.8,6.9,25.2,1,35c-0.4,0.7,0.6,1.6,1.2,0.9C124.2,34.1,127.6,22,123.6,12.4z"/>
	<path fill="#FFFFFF" d="M172.4,5.3c-6.1-8.4-17.4-5.6-24.1,0.3c-8.7,7.7-14.7,19.5-16.7,30.8c-0.1,0.8,1,1.1,1.2,0.3
		c3.7-11.7,9.8-25.6,21-32c7.1-4.1,18-2.1,18.6,7.7c0.6,11.9-17.8,12.5-14.1-0.4c0.3-0.9-1-1.8-1.7-1c-5.6,6.3,2.2,14.7,9.3,13.5
		C174.7,23,177.3,12,172.4,5.3z"/>
</g>
</svg>
