<?xml version="1.0" encoding="utf-8"?>
<!-- Generator: Adobe Illustrator 20.1.0, SVG Export Plug-In . SVG Version: 6.00 Build 0)  -->
<svg version="1.1" id="Layer_1" xmlns="http://www.w3.org/2000/svg" xmlns:xlink="http://www.w3.org/1999/xlink" x="0px" y="0px"
	 width="207.2px" height="229.6px" viewBox="0 0 207.2 229.6" style="enable-background:new 0 0 207.2 229.6;" xml:space="preserve"
	>
<title>Annie &amp;amp; Neil</title>
<path class="st0" d="M66.9,101.5c0.1,0.2,0.1,0.4-0.1,0.5c-0.1,0.1-0.2,0.3-0.3,0.4c-0.1,0.3-0.3,0.6-0.5,0.9
	c-0.2,0.2-0.3,0.3-0.5,0.4c-0.2,0.1-0.4,0.2-0.7,0.4c-0.6,0.4-1.3,0.8-1.9,1.1c-0.7,0.4-1.5,0.5-2.3,0.4l-1.9-0.3l-1.2-0.3
	c-0.2-0.1-0.4-0.1-0.6-0.1s-0.4,0-0.6-0.1c-0.6-0.1-1.2-0.4-1.7-0.6c-0.5-0.3-0.9-0.6-1.3-1c-1.1-0.8-2.1-1.7-2.9-2.7
	c-0.8-1-1.5-2.2-2.1-3.4c-0.7-1.4-1.1-3-1.2-4.5c-0.1-1.6-0.3-3.1-0.7-4.6c-0.2-1.1-0.3-2.2-0.3-3.2c0-1.4-0.1-2.9-0.1-4.6
	s0.1-3.4,0.1-5.2c0.1-1.8,0.2-3.6,0.4-5.3c0-1.8,0.2-3.7,0.7-5.4c0.2-0.9,0.2-1.9,0.1-2.8c-0.1-0.9,0-1.9,0.1-2.8
	c0.2-0.6,0.3-1.2,0.3-1.9c0-0.6,0.1-1.2,0.3-1.7v-2.4L35,54c-0.8,0.1-1.5,0.2-2.3,0.4c-0.7,0.2-1.4,0.3-2.3,0.5
	c-0.2,1.7-0.8,3.4-1.5,4.9c-0.9,1.8-1.7,3.5-2.5,4.9c-0.1,0.3-0.2,0.5-0.4,0.8s-0.3,0.5-0.4,0.8l-3.8,9.2c-0.5,1.3-1.2,2.8-1.9,4.5
	c-0.8,1.7-1.7,3.4-2.7,5.1c-1,1.6-2.1,3.1-3.4,4.4c-1.2,1.2-2.6,2.2-4.2,2.7c-1.3,0.5-2.8,0.6-4.2,0.4c-1.1-0.2-2.2-0.7-3.1-1.4
	c-0.8-0.7-1.4-1.6-1.8-2.6c-0.4-1-0.5-2.1-0.5-3.1c0.1-0.4,0.2-0.8,0.3-1.2c0.1-0.4,0.2-0.8,0.4-1.2c0.4-0.4,1-0.7,1.5-0.8
	c0.5-0.1,1.1-0.1,1.5,0.1c0.8,0.3,1.3,1,1.5,1.8c0,0.4,0,0.8-0.2,1.2C5,85.6,5,85.8,5.1,86v0.9c0,0.4,0.3,0.9,0.9,1.3
	c0.7-0.3,1.4-0.8,1.9-1.3c0.7-0.6,1.3-1.3,1.9-2c0.6-0.7,1.1-1.4,1.6-2.1c0.3-0.5,0.6-1,0.9-1.5c0.9-2.2,1.8-4.4,2.7-6.4
	s2-4.1,3.1-6.2l1.7-4.4c0.3-0.7,0.5-1.4,0.8-2.1l1-2.2c0.3-0.8,0.6-1.5,1-2.2c0.4-0.7,0.7-1.5,0.8-2.3c-2.2,0.4-4.3,0.9-6.3,1.3
	c-1.9,0.4-3.8,0.4-5.6-0.1c-0.5-0.1-0.9-0.3-1.4-0.5c-0.5-0.2-0.9-0.6-1.3-1c-0.3-0.3-0.3-0.7-0.1-1.1c0.2-0.3,0.9-0.7,2.1-0.9
	s2.6-0.5,4.1-0.8c1.6-0.3,3-0.5,4.5-0.7s2.7-0.4,3.8-0.5c1.1-0.1,1.7-0.2,1.9-0.2l1.9-5.2c0.1-0.3,0.2-0.6,0.3-0.9
	c0.1-0.3,0.2-0.6,0.4-0.9l2.2-4.9c0.1-0.3,0.3-0.7,0.5-1c0.1-0.2,0.3-0.5,0.5-0.8c0.5-1.1,1-2.1,1.4-3.2l1.5-4.1l1.5-4.3
	c0.5-1.3,1.1-2.6,1.7-3.8l1.5-3.4c0.3-0.8,0.6-1.7,1-2.5c0.5-1,1-2.1,1.6-3.2l1.8-3.2c0.6-1,1.1-1.9,1.5-2.6
	c0.2-0.3,0.3-0.5,0.5-0.7c0.2-0.2,0.3-0.5,0.4-0.7c0.2-0.4,0.4-0.8,0.7-1.2c0.1-0.2,0.3-0.3,0.4-0.5c0.2-0.1,0.3-0.2,0.4-0.4
	c0.2-0.3,0.4-0.6,0.5-0.9c0.3-0.7,0.8-1.4,1.4-1.9c0.4-0.4,0.9-0.6,1.5-0.7C50.8,0,51.3,0,51.8,0.1c0.5,0.1,1.1,0.2,1.6,0.2
	c0.7,0,1.4,0.1,2.1,0.3C56.1,1,56.5,1.4,57,1.9c0.4,0.5,0.9,0.8,1.4,1c0.3,0,0.8,0.6,1.3,1.8c0.6,1.1,1,2.4,1.2,3.6
	c0.3,1.5,0.5,3.1,0.7,4.7c0.1,1.6,0.2,3.2,0.1,4.8c0,1.6-0.1,2.9-0.2,3.9c-0.7,4.5-1.1,9.1-1.3,13.7c-0.2,4.8-0.7,9.6-1.4,14.3
	c-0.2,1-0.3,1.9-0.4,2.7l-0.3,2.6c-0.4,3.6-0.8,7.2-1,10.6c-0.2,3.6-0.6,7.1-1.2,10.6l-0.8,5.8c-0.2,1.5-0.3,2.8-0.4,4
	c-0.1,1.4,0.1,2.8,0.4,4.2c0.2,0.7,0.2,1.5,0.2,2.2c0,0.7,0,1.4,0,2.1c0.1,0.7,0.2,1.5,0.5,2.1c0.4,0.9,1,1.8,1.6,2.5
	c0.7,0.8,1.2,1.4,1.6,1.9c0.3,0.4,0.8,0.7,1.3,0.7c0.5,0,0.9-0.2,1.3-0.4c0.3-0.2,0.6-0.3,0.9-0.5c0.6-0.3,1.2-0.4,1.8-0.5
	c0.6-0.2,1.3-0.1,1.8,0.3c0.2,0,0.5,0.1,0.7,0.3C66.9,101,66.9,101.2,66.9,101.5z M49.2,47.8c0.5-3.1,1-6.1,1.4-8.9s0.8-5.7,1-8.5
	c0.3-2.8,0.5-5.7,0.6-8.5c0.1-2.9,0.2-5.9,0.1-9.1c0-1.4,0-2.6-0.1-3.7c0-1.1-0.1-2-0.2-2.8l-3.2,4.9c-1,1.7-2,3.6-2.7,5.4
	l-5.2,10.8c-0.1,0.3-0.1,0.5-0.1,0.8c0,0.3-0.1,0.6-0.3,0.8c-0.2,0.5-0.3,1-0.5,1.4l-1.6,3.6c-0.7,1.4-1.3,2.9-1.9,4.4
	c-0.6,1.5-1.2,2.9-1.8,4.3c-0.4,1-0.7,2.1-0.9,3.2c-0.1,0.2-0.2,0.4-0.3,0.7s-0.3,0.7-0.5,1.1c-0.2,0.4-0.3,0.8-0.4,1.2
	c-0.1,0.3-0.2,0.7-0.3,1.2L49.2,47.8z"/>
<path class="st0" d="M114.5,43.9c-0.4,0.7-0.7,1.5-0.8,2.3c-0.2,1.1-0.4,1.9-0.5,2.4c-0.4,1.1-0.9,2.4-1.5,3.9l-1.8,4.3
	c-0.6,1.2-1.1,2.5-1.6,3.9s-1.1,2.7-1.7,3.8c-0.4,0.9-0.8,1.9-1.1,2.9c-0.4,1.2-0.8,2.4-1.2,3.7c-0.4,1.3-0.8,2.4-1.2,3.5
	c-0.3,0.8-0.6,1.6-0.9,2.3c-0.5,0.8-1,1.7-1.4,2.6c-0.4,0.9-0.9,1.7-1.4,2.5c-0.6,0.8-1,1.7-1.3,2.7c-0.2,0.7-0.6,1.4-1.1,1.9
	c-0.6,0.5-1.2,1-1.8,1.5c-0.4,0.4-1.3,0.5-2.6,0.3c-1.3-0.1-2.6-0.6-3.6-1.5c-0.7-0.6-1.3-1.4-1.8-2.2c-0.4-0.5-0.6-1-0.6-1.6
	c0-0.6-0.1-1.1-0.2-1.7c-0.6-2.2-0.7-4.5-0.5-6.8c0.2-2.5,0.6-5,1.1-7.4c0.1-1.8,0.4-3.5,0.7-5.2c0.4-2.1,0.8-4.2,1.3-6.4
	c0.5-2.2,0.9-4.3,1.3-6.3c0.4-2,0.8-3.7,1-5.1c0.2-1.8,0.6-3.8,1-5.9c0.4-2,0.7-4.1,0.8-6.1c0-1-0.1-1.9-0.3-2.8
	c-0.4-1.3-0.8-2.1-1.3-2.2C91,27.3,90.6,27.5,90,28c-0.4,0.3-0.7,0.7-0.9,1.1c-0.4,0.6-0.7,1.2-1.1,1.9s-0.7,1.4-1,2.1
	c-0.3,0.5-0.5,1.1-0.6,1.7l-0.9,2.8c-0.1,0.2-0.1,0.5-0.1,0.7c0,0.2-0.1,0.4-0.2,0.6c-0.1,0.2-0.2,0.4-0.3,0.7
	c-0.1,0.2-0.2,0.4-0.3,0.7c-0.1,0.2-0.1,0.5-0.1,0.8c0,0.3-0.1,0.5-0.2,0.8c-0.5,1.1-1.1,2.6-1.8,4.4c-0.7,1.8-1.4,3.8-2.2,5.8
	c-0.7,2-1.5,4.1-2.2,6.1c-0.7,2-1.2,3.6-1.5,4.9c-0.6,2-1.2,4-1.6,5.7c-0.4,1.6-1,3.1-1.6,4.6c-0.2,0.4-0.3,0.8-0.3,1.2
	c-0.1,0.5-0.2,0.9-0.5,1.3c-0.8,0.6-1.8,0.9-2.8,0.7c-0.5-0.1-1.1-0.2-1.6-0.3c-0.4,0-0.9-0.2-1.2-0.4c-0.9-0.6-1.6-1.3-2.2-2.2
	c-0.6-0.9-1-1.9-1.1-2.9c-0.2-0.9-0.3-1.9-0.2-2.8c0-1.1,0-2.2,0.1-3.5s0.1-2.4,0.2-3.5c0.1-1.1,0.3-2,0.4-2.8
	c0.3-2.3,0.6-4.7,0.8-7.1s0.5-4.8,0.9-7.3c0.1-0.4,0.1-0.9,0.2-1.3c0-0.5,0.1-1,0.2-1.5c0.1-0.5,0.2-0.9,0.3-1.4
	c0-0.4,0.1-0.9,0.1-1.5v-1.1c0-0.2,0-0.4,0.1-0.6c0-0.3,0.2-0.6,0.5-0.8c0.1-0.1,0.3-0.2,0.5-0.2c0.2,0,0.4,0,0.5-0.1
	c0.5-0.2,1-0.2,1.5-0.2c0.4,0,0.7,0,1.1,0.2c0.3,0.3,0.7,0.4,1.2,0.4c0.5,0,1,0.2,1.4,0.5c0.2,0.2,0.3,0.4,0.5,0.7
	c0.3,0.2,0.4,0.5,0.5,0.8c0.1,0.4,0.1,0.9,0.1,1.3c0,0.6,0,1.3-0.1,2c0,0.7-0.1,1.4-0.2,2c-0.1,0.5-0.1,0.9-0.1,1.4
	c-0.1,0.6-0.2,1.2-0.3,1.8c-0.2,0.6-0.3,1.1-0.3,1.6c-0.2,1.5-0.3,3-0.5,4.6c-0.2,1.6-0.4,3.1-0.7,4.7c-0.2,1.5-0.3,3.1-0.1,4.6
	c0.7-1.6,1.3-3.3,1.8-4.9c0.4-1.5,0.9-3.1,1.5-4.8l1.7-4.6c0.8-2.2,1.6-4.5,2.4-6.8c0.8-2.3,1.6-4.6,2.4-6.6c0.5-1.4,1.1-2.7,1.8-4
	c0.3-0.3,0.5-0.7,0.6-1.1c0.1-0.4,0.4-0.8,0.8-1l0.7-1.3L86,26l1.8-1.2c0.4-0.3,0.8-0.5,1.3-0.7c0.6-0.3,1.4-0.4,2.1-0.3
	c0.8,0.1,1.7,0.3,2.5,0.5c0.8,0.3,1.6,0.7,2.3,1.2c0.6,0.4,1.2,0.9,1.7,1.5c0.2,0.2,0.4,0.5,0.6,0.7c0.3,0.3,0.5,0.6,0.6,1
	c0.2,0.8,0.6,1.7,0.9,2.5c0.6,1.2,0.9,2.4,1,3.8c0,0.9-0.1,1.9-0.3,2.8c-0.2,1.1-0.3,2.3-0.4,3.5c-0.1,1.2-0.3,2.4-0.5,3.5
	c-0.2,1.5-0.6,3.3-1,5.5l-1.3,6.9c-0.5,2.4-0.9,4.7-1.4,6.9c-0.5,2.2-0.9,4-1.2,5.5c-0.3,1.4-0.6,3.2-0.9,5.3c-0.3,2-0.4,4-0.2,6
	v1.1c0,0.4,0,0.8,0.1,1.1c0.3-0.2,0.6-0.5,0.8-0.8c0.2-0.4,0.5-0.7,0.8-1.1c0.2-0.5,0.5-0.9,0.8-1.3c0.3-0.4,0.6-0.8,0.8-1.3
	l5.6-12.7l2.3-6.6c0.3-0.7,0.5-1.2,0.7-1.5c0.2-0.3,0.4-0.9,0.7-1.8l2.4-5.6l0.6-1.2c0.2-0.3,0.3-0.7,0.5-1.1s0.4-1.1,0.7-2.2
	c0.4-0.9,0.6-1.6,0.8-2l0.9-1.9c0.1-0.3,0.2-0.5,0.3-0.5h0.5c0.2-0.1,0.5-0.1,0.8-0.1c0.2,0,0.4,0.4,0.6,1c0.1,0.3,0.2,0.4,0.2,0.3
	v0.2L114.5,43.9z"/>
<path class="st0" d="M160.3,43.9c-0.4,0.7-0.7,1.5-0.8,2.3c-0.2,1.1-0.4,1.9-0.5,2.4c-0.4,1.1-0.9,2.4-1.5,3.9l-1.8,4.3
	c-0.5,1.2-1.1,2.5-1.6,3.9c-0.6,1.4-1.1,2.7-1.6,3.8c-0.4,0.9-0.8,1.9-1.1,2.9c-0.4,1.2-0.8,2.4-1.2,3.7c-0.4,1.3-0.8,2.4-1.2,3.5
	c-0.3,0.8-0.6,1.6-0.9,2.3c-0.5,0.8-1,1.7-1.4,2.6c-0.4,0.9-0.9,1.7-1.4,2.5c-0.6,0.8-1,1.7-1.4,2.7c-0.2,0.7-0.6,1.4-1.1,1.9
	c-0.6,0.5-1.2,1-1.8,1.5c-0.4,0.4-1.3,0.5-2.6,0.3c-1.3-0.1-2.6-0.6-3.6-1.5c-0.7-0.6-1.3-1.4-1.8-2.2c-0.4-0.5-0.6-1-0.6-1.6
	c0-0.6-0.1-1.1-0.2-1.7c-0.6-2.2-0.7-4.5-0.5-6.8c0.2-2.5,0.6-5,1.1-7.4c0.1-1.8,0.4-3.5,0.7-5.2c0.4-2.1,0.8-4.2,1.3-6.4
	c0.5-2.2,0.9-4.3,1.4-6.3c0.4-2,0.8-3.7,1-5.1c0.2-1.8,0.6-3.8,1-5.9c0.4-2,0.7-4.1,0.8-6.1c0-1-0.1-1.9-0.4-2.8
	c-0.4-1.3-0.8-2.1-1.3-2.2c-0.3-0.1-0.8,0.1-1.4,0.6c-0.4,0.3-0.7,0.7-0.9,1.1c-0.4,0.6-0.7,1.2-1.1,1.9s-0.7,1.4-1,2.1
	c-0.3,0.5-0.5,1.1-0.6,1.7l-0.9,2.8c-0.1,0.2-0.1,0.5-0.1,0.7c0,0.2-0.1,0.4-0.2,0.6c-0.1,0.2-0.2,0.4-0.3,0.7
	c-0.1,0.2-0.2,0.4-0.3,0.7c-0.1,0.2-0.1,0.5-0.1,0.8c0,0.3-0.1,0.5-0.2,0.8c-0.5,1.1-1.1,2.6-1.8,4.4c-0.7,1.8-1.4,3.8-2.2,5.8
	c-0.7,2-1.5,4.1-2.2,6.1c-0.7,2-1.2,3.6-1.5,4.9c-0.6,2-1.2,3.9-1.6,5.7c-0.4,1.6-1,3.1-1.6,4.6c-0.2,0.4-0.3,0.8-0.4,1.2
	c-0.1,0.5-0.2,0.9-0.5,1.3c-0.8,0.6-1.8,0.9-2.8,0.7c-0.5-0.1-1.1-0.2-1.6-0.3c-0.4,0-0.9-0.2-1.2-0.4c-0.9-0.6-1.6-1.3-2.2-2.2
	c-0.6-0.9-1-1.9-1.1-2.9c-0.2-0.9-0.2-1.9-0.2-2.8c0-1.1,0-2.2,0.1-3.5s0.1-2.4,0.2-3.5s0.3-2,0.4-2.8c0.3-2.3,0.6-4.7,0.9-7.2
	c0.3-2.4,0.6-4.9,0.9-7.3c0.1-0.4,0.1-0.9,0.2-1.3c0-0.5,0.1-1,0.2-1.5c0.1-0.5,0.2-0.9,0.3-1.4c0-0.4,0.1-0.9,0.1-1.5v-1
	c0-0.2,0-0.4,0.1-0.6c0-0.3,0.2-0.6,0.5-0.8c0.1-0.1,0.3-0.2,0.5-0.2c0.2,0,0.4,0,0.5-0.1c0.5-0.2,1-0.2,1.5-0.2
	c0.4,0,0.7,0,1.1,0.2c0.3,0.3,0.7,0.4,1.2,0.4c0.5,0,1,0.2,1.4,0.5c0.2,0.2,0.3,0.4,0.5,0.7c0.3,0.2,0.4,0.5,0.5,0.8
	c0.1,0.4,0.1,0.9,0.1,1.3c0,0.6,0,1.3-0.1,2s-0.1,1.4-0.2,2c-0.1,0.5-0.1,0.9-0.1,1.4c-0.1,0.6-0.2,1.2-0.4,1.8
	c-0.2,0.6-0.3,1.1-0.4,1.6c-0.2,1.5-0.3,3-0.5,4.6s-0.4,3.1-0.6,4.7c-0.2,1.5-0.3,3.1-0.1,4.6c0.7-1.6,1.3-3.3,1.8-4.9
	c0.4-1.5,0.9-3.1,1.5-4.8l1.6-4.6c0.8-2.2,1.6-4.5,2.4-6.8s1.6-4.6,2.4-6.6c0.5-1.4,1.1-2.7,1.8-4c0.3-0.3,0.4-0.7,0.6-1.1
	c0.1-0.4,0.4-0.8,0.8-1l0.7-1.3l0.5-0.2l1.8-1.2c0.4-0.3,0.8-0.5,1.3-0.7c0.6-0.3,1.4-0.5,2.1-0.3c0.8,0.1,1.7,0.3,2.5,0.5
	c0.8,0.3,1.6,0.7,2.3,1.2c0.6,0.4,1.1,0.9,1.6,1.5c0.2,0.2,0.4,0.5,0.6,0.7c0.3,0.3,0.5,0.6,0.6,1c0.2,0.8,0.6,1.7,0.9,2.5
	c0.3,0.6,0.5,1.2,0.7,1.8c0.2,0.6,0.3,1.3,0.3,1.9c0,0.9-0.1,1.9-0.3,2.8c-0.2,1.1-0.3,2.3-0.4,3.5c-0.1,1.2-0.3,2.4-0.5,3.5
	c-0.2,1.5-0.6,3.3-1,5.5l-1.4,6.9c-0.5,2.4-0.9,4.7-1.4,6.9c-0.5,2.2-0.9,4-1.2,5.5c-0.3,1.4-0.6,3.2-0.9,5.3c-0.3,2-0.4,4-0.2,6
	v1.1c0,0.4,0,0.8,0.1,1.1c0.3-0.2,0.6-0.5,0.8-0.8c0.2-0.4,0.5-0.7,0.8-1.1c0.2-0.5,0.5-0.9,0.8-1.3c0.3-0.4,0.6-0.8,0.8-1.3
	l5.6-12.7l2.4-6.6c0.3-0.7,0.5-1.2,0.7-1.5c0.2-0.3,0.4-0.9,0.7-1.8l2.4-5.6l0.6-1.2c0.2-0.3,0.3-0.7,0.5-1.1s0.4-1.1,0.8-2.1
	c0.4-0.9,0.6-1.6,0.8-2l0.9-1.9c0.2-0.3,0.2-0.5,0.3-0.5h0.5c0.2-0.1,0.5-0.1,0.8-0.1c0.2,0,0.4,0.4,0.6,1c0.2,0.3,0.2,0.4,0.2,0.3
	v0.2L160.3,43.9z"/>
<path class="st0" d="M179.1,42.1c0.2,0.2,0.4,0.4,0.4,0.5c-0.3,0.9-0.6,1.7-1,2.5c-0.5,1.1-1,2.4-1.6,3.7l-0.5,1.3
	c-0.2,0.5-0.4,0.9-0.5,1.3c-0.3,0.9-0.7,1.9-1.2,2.7c-0.2,0.4-0.4,1-0.6,1.7c-0.2,0.7-0.5,1.6-0.9,2.5l-0.7,1.9
	c-0.2,0.6-0.5,1.3-0.8,2c-0.3,0.7-0.6,1.4-0.8,2c-0.3,0.7-0.6,1.4-0.9,2.1c-0.3,0.7-0.6,1.3-0.9,1.9c-0.3,0.6-0.6,1.2-0.9,1.8
	c-0.4,0.8-0.8,1.6-1.1,2.3c-0.2,0.5-0.5,1-1,1.3c-0.6,0.4-1.2,0.8-1.9,1.1c-0.5,0.2-1,0.3-1.5,0.4c-0.8,0.2-2,0-3.8-0.7l-2.2-1.2
	c-0.5-0.3-0.9-0.7-1.3-1.2c-0.3-0.4-0.7-0.9-1.1-1.4c-0.6-0.9-1-1.9-1.2-2.9c-0.2-1.2-0.4-2.5-0.5-3.7c-0.1-1.3-0.1-2.6-0.1-3.9
	c0-1.3,0.1-2.4,0.1-3.3c0-0.6,0-1.3,0.1-1.9c0-0.7,0.1-1.3,0.2-1.9c0.4-1.5,0.6-3,0.8-4.6c0.2-1.4,0.4-2.8,0.7-4.1
	c0.2-1.1,0.5-2.2,0.8-3.3c0.3-1.1,0.6-2.3,0.9-3.5c0.1-0.4,0.2-1,0.4-1.8s0.4-1.6,0.6-2.3c0.2-0.7,0.5-1.5,0.8-2.2
	c0.2-0.5,0.5-0.9,0.8-1.2c0.3-0.2,0.7-0.3,1.1-0.2c0.5,0,0.9,0,1.4,0.1c0.4,0.1,0.9,0.2,1.3,0.3c0.3,0.1,0.6,0.2,0.8,0.3
	c0.2,0.1,0.3,0.2,0.5,0.3c0.2,0.1,0.3,0.3,0.5,0.4l0.1,0.1c0.9,0.8,1.3,1.5,1,2.2c-0.3,0.7-0.6,1.5-1,2.3c-0.1,0.4-0.3,0.8-0.5,1.2
	c-0.7,1.7-1.2,3.4-1.6,5.2c-0.4,2-0.8,4.1-1.2,6.2s-0.6,4.2-0.8,6.2c-0.2,2-0.3,3.7-0.4,5.1c-0.2,1.7-0.2,3.4-0.2,5.1
	c0,1.4,0.2,2.9,0.6,4.2c0.3,0.9,0.8,1.5,1.5,1.5c0.3,0,0.7-0.2,0.9-0.4c0.3-0.3,0.5-0.6,0.8-0.9c0.2-0.2,0.3-0.3,0.4-0.5
	c0.1-0.2,0.2-0.4,0.4-0.5c0.3-0.4,0.5-0.7,0.7-1.2l0.5-1.2c0.2-0.3,0.4-0.7,0.5-1.1c0.2-0.6,0.5-1.2,0.9-1.8
	c0.7-1.2,1.3-2.5,1.8-3.8c0.6-1.7,1.2-3.1,1.8-4.3l1.4-3.4l2.4-4.9l1.5-3.2c0.1-0.2,0.2-0.4,0.2-0.6l0.2-0.7
	c0.1-0.1,0.2-0.1,0.4-0.1c0.1,0,0.2,0,0.2-0.1c0.1-0.1,0.1-0.1,0.2-0.1c0.1,0,0.2,0,0.2-0.1c0.1,0,0.1,0,0.1,0.1s0,0.1,0.1,0.1h0.1
	c0.1,0.1,0.3,0.1,0.5,0.1h0.5c0.1,0.1,0.2,0.1,0.2,0.2C179,42,179.1,42,179.1,42.1z M163.1,23.8c-0.3-0.2-0.5-0.5-0.7-0.8v-1.3
	c0-0.5,0-0.9,0.1-1.4c0.1-0.5,0.3-1,0.5-1.4c0.2-0.5,0.4-0.8,0.7-0.8l0.5-0.3c0.2-0.1,0.3-0.2,0.5-0.2c0.4-0.4,1-0.6,1.6-0.5
	c0.6,0.1,1.2,0.3,1.7,0.6l0.2,0.2l0.2,0.2c0.1,0.1,0.1,0.3,0.1,0.5l0.2,0.7c0,0.1,0,0.2,0.1,0.3c0.1,0.2,0.1,0.4,0.1,0.6
	c0,0.2,0,0.3,0.1,0.5c0,0.2,0,0.4-0.1,0.6l-0.2,0.5l-0.2,0.5c-0.1,0.3-0.3,0.6-0.6,0.8c-0.3,0.3-0.5,0.5-0.8,0.7
	c-0.5,0.4-1.1,0.5-1.6,0.5c-0.2-0.1-0.4-0.1-0.6,0c-0.3,0.1-0.6,0.1-0.8,0l-0.1,0.1c-0.4,0-0.7-0.1-0.9-0.5L163.1,23.8z"/>
<path class="st0" d="M206.1,41.3c0.5,0.1,0.8,0.4,1,0.8c0.2,0.6,0.1,1.2-0.3,1.7l-0.2,0.6l-1.4,2.8c-0.7,1.6-1.6,3.1-2.5,4.5
	c-0.9,1.4-1.7,2.7-2.4,4.1c-0.2,0.6-0.6,1.1-0.9,1.5c-0.4,0.5-0.8,1-1.1,1.5c-0.6,1-1.3,2-2,3.1c-0.7,1-1.4,2-2,3.1
	c-0.7,0.9-1.6,1.8-2.5,2.4c-0.7,0.4-1.4,0.9-1.9,1.5c-0.7,0.7-1.5,1.2-2.4,1.5c-1,0.4-2.3,0.8-3.8,1.3c-1,0.1-2,0.1-3.1,0
	c-0.9,0-1.9-0.2-2.7-0.6c-1.2-0.7-2.3-1.6-3.2-2.7c-1.1-1.4-1.8-3.1-2.1-4.9c-0.2-0.6-0.3-1.2-0.4-1.8c-0.1-0.7-0.1-1.4-0.1-2.1
	v-1.6c0-0.6,0-1.2,0.1-1.8c0.1-0.6,0.2-1.2,0.3-1.9c0.1-0.6,0.2-1.3,0.4-1.9c0.2-0.7,0.3-1.5,0.4-2.3c0.1-0.7,0.2-1.5,0.4-2.2
	c0.3-0.9,0.7-1.9,1.1-2.8c0.5-1,1-2.1,1.6-3.1c0.6-1,1.1-1.8,1.6-2.6c0.3-0.5,0.6-1,1.1-1.3c0.3-0.4,0.6-0.7,0.9-1
	c0.3-0.3,0.6-0.6,0.9-0.9c0.4-0.4,0.9-0.8,1.4-1.1c1.5-0.8,3.2-1.3,4.9-1.4c1.6,0,3.3,0.4,4.7,1.2c0.4,0.2,0.7,0.5,1,0.9
	c0.3,0.4,0.5,0.7,0.8,1.1c0.2,0.4,0.4,0.8,0.5,1.2c0.1,0.4,0.2,0.9,0.2,1.5c0.2,0.7,0.2,1.4,0.1,2.2l-0.7,2
	c-0.4,0.9-0.9,1.8-1.4,2.7c-0.3,0.5-0.7,0.9-1.1,1.2l-1.4,0.9c-0.4,0.3-0.8,0.6-1.3,0.9c-0.4,0.3-0.9,0.4-1.4,0.3
	c-0.4-0.1-0.9-0.1-1.3,0.1c-0.5,0.1-1.1,0.1-1.6,0.1c-0.2,0-0.4,0-0.5-0.1c-0.2,0-0.4-0.1-0.5-0.1c-0.4-0.2-0.7-0.3-1-0.3l-0.8-0.2
	c0,0.4-0.1,0.8-0.2,1.1c-0.2,0.5-0.3,1.1-0.5,1.7c-0.4,1.2-0.7,2.4-0.9,3.6c-0.2,0.5-0.2,0.9-0.2,1.4c0,0.5,0,0.9-0.1,1.4
	c-0.2,1.2-0.2,2.4,0,3.5c0.2,1,0.5,2,0.7,2.8c0.2,0.6,0.7,1.1,1.4,1.4c0.7,0.3,1.2,0.5,1.6,0.7c0.3,0.1,0.6,0.1,0.9,0
	c0.3-0.1,0.7-0.1,1.1-0.1c1.1,0,2.2-0.4,3.1-1.2c0.6-0.5,1.3-1.1,2-1.6c0.7-0.5,1.3-1.1,1.9-1.8c0.5-0.8,1.1-1.5,1.6-2.2
	c0.5-0.7,1-1.3,1.4-1.8c0.5-0.6,0.9-1.2,1.3-1.8s0.8-1.1,1.2-1.8c1.4-1.8,2.7-3.8,3.9-5.8l3.4-6.2l0.4-0.7c0.2-0.4,0.4-0.6,0.4-0.6
	L206.1,41.3z M183.5,42.6c-0.2,0.4-0.3,0.9-0.5,1.4s-0.3,1.1-0.6,1.8c0.2,0.1,0.3,0.2,0.5,0.2l0.6,0.2l0.9,0.2
	c0.2,0.1,0.5,0.1,0.7,0c0.4,0,0.8-0.1,1.2-0.2l1.2-0.5c0.9-0.6,1.6-1.6,1.9-2.7c0.3-0.6,0.5-1.3,0.5-2c0.1-0.2,0.1-0.4,0-0.5
	c-0.1-0.2-0.1-0.4-0.1-0.6c0-0.3,0-0.6-0.1-0.8c-0.3-0.6-0.9-1-1.5-1.1c-0.3,0-0.7,0.1-1,0.1c-0.4,0.1-0.8,0.3-1.1,0.6
	c-0.4,0.3-0.8,0.6-1.1,1c-0.4,0.4-0.8,0.9-1,1.5c-0.1,0.2-0.2,0.5-0.2,0.7C183.6,42.2,183.6,42.4,183.5,42.6L183.5,42.6z"/>
<path class="st0" d="M117.6,110.4c0.2,0.6,0.2,1.3,0.1,1.9c-0.1,0.7-0.2,1.3-0.3,1.9c0,0.3-0.1,0.6-0.2,0.9l-0.4,0.6l-0.6,1.3
	c-0.2,0.4-0.5,0.8-0.8,1.1c-0.3,0.4-0.6,0.7-1,0.9c-0.3,0.1-0.6,0.3-0.8,0.4l-1,0.6c-0.3,0.2-0.6,0.4-0.9,0.7
	c-0.3,0.2-0.5,0.4-0.6,0.6c0.2,0.2,0.5,0.4,0.7,0.6c0.8,0.9,1.3,1.9,1.7,2.9c0.2,0.6,0.3,1.3,0.3,2c0,0.3-0.1,0.6-0.1,0.8
	c0,0.3-0.1,0.5-0.1,0.7c-0.1,1.2-0.5,2.3-1,3.4c-0.7,1.1-1.4,2.2-2.3,3.1c-0.1,0.2-0.3,0.4-0.5,0.5l-0.7,0.5
	c-0.2,0.2-0.4,0.4-0.6,0.5c-0.2,0.1-0.4,0.2-0.6,0.4c-0.7,0.6-1.6,0.9-2.5,1.1c-1.1,0.2-2.2,0.2-3.3,0.1c-1.9-0.1-3.7-0.5-5.5-1.1
	c-1.5-0.4-2.9-1.3-4-2.5c-0.4-0.4-0.7-0.8-1-1.2c-0.3-0.4-0.6-0.9-0.8-1.4l-0.4-0.7c-0.1-0.2-0.2-0.5-0.3-0.7
	c-0.4-1.6-0.6-3.3-0.4-5l0.6-2.9c0.1-0.2,0.1-0.3,0.2-0.5c0-0.1,0.1-0.3,0.2-0.4c0.6-2,1.5-3.9,2.7-5.6c1.2-1.7,2.8-3.1,4.6-4
	l0.7-0.4c0.2-0.1,0.5-0.3,0.6-0.6c-0.1-0.2-0.2-0.3-0.4-0.5c-0.2-0.1-0.3-0.2-0.5-0.4c-0.3-0.3-0.6-0.7-0.8-1.1
	c-0.2-0.4-0.4-0.8-0.5-1.2c-0.1-0.2-0.2-0.4-0.3-0.6c-0.1-0.2-0.2-0.4-0.2-0.6c-0.6-1.8-0.6-3.8,0-5.6c0.6-1.8,1.6-3.3,2.9-4.7
	c0.3-0.4,0.6-0.6,1-0.8l1.2-0.4c0.3-0.1,0.6-0.2,0.8-0.2c0.3-0.1,0.7-0.2,1-0.2h0.7c0.4,0,0.7,0.1,1.1,0.2c0.3,0.1,0.7,0.1,1.1,0.2
	c0.5,0.1,1,0.2,1.4,0.4c0.5,0.2,0.9,0.6,1.2,1c0.1,0.1,0.2,0.2,0.4,0.3c0.1,0.1,0.2,0.3,0.3,0.4c0.4,0.6,0.7,1.3,1,2
	c0.3,1.1,0.3,2.3,0,3.4c-0.1,0.4-0.4,0.9-0.7,1.2c-0.3,0.3-0.6,0.5-1,0.5c-0.5,0-0.9-0.2-1.2-0.6c-0.5-0.5-0.6-0.9-0.5-1.2
	c0.2-0.4,0.3-0.9,0.5-1.3c0-0.1,0.1-0.3,0.1-0.5c0-0.2,0.1-0.4,0.1-0.5c0.1-0.6,0-1.2-0.3-1.8c-0.3-0.7-1-0.9-2-0.6
	c-0.9,0.1-1.7,0.5-2.3,1.2c-0.7,0.8-1.3,1.7-1.7,2.6c-0.4,1-0.8,2-1,3.1c-0.2,0.8-0.2,1.7,0,2.6c0,0.2,0.1,0.3,0,0.2s0,0,0.1,0.2
	s0.2,0.6,0.2,0.9c0,0.3,0.1,0.5,0.3,0.7c0.2,0.2,0.4,0.5,0.6,0.6c0.3,0.3,0.7,0.5,1.1,0.6c0.5,0.2,1.1,0.4,1.7,0.5
	c0.6,0.1,1.2,0.2,1.8,0.4c0.3,0.1,0.7,0.2,1,0.2c0.3,0,0.7,0.1,1,0.2c0.3,0.1,0.5,0.3,0.6,0.6c0.1,0.3,0.2,0.7,0.1,1.1
	c-0.2,0.5-0.7,0.8-1.2,0.8c-0.6,0-1.3,0-2.1,0c-0.6,0-1.3,0-1.9,0c-0.6,0.1-1.2,0.4-1.7,0.8c-0.1,0.1-0.2,0.1-0.3,0.2
	c-0.2,0.1-0.3,0.1-0.4,0.2c-0.4,0.3-0.7,0.5-1,0.9c-0.4,0.4-0.8,0.8-1.2,1.2c-0.4,0.4-0.8,0.9-1.1,1.3c-0.3,0.4-0.5,0.8-0.7,1.2
	c-0.1,0.2-0.2,0.4-0.4,0.6c-0.2,0.3-0.4,0.7-0.5,1c-0.6,1.2-1.1,2.5-1.6,3.7c-0.4,1.3-0.6,2.7-0.3,4c0,0.3,0.1,0.7,0.2,1
	c0.1,0.2,0.2,0.5,0.4,0.9c0.6,1.2,1.5,2.3,2.7,3c1.1,0.7,2.4,1.2,3.8,1.2c0.7,0,1.5,0,2.2-0.2c0.7-0.2,1.5-0.5,2.1-0.9
	c0.6-0.4,1.1-0.8,1.5-1.3c0.4-0.5,0.9-0.9,1.4-1.4c0.4-0.4,0.7-0.9,1-1.4c0.3-0.5,0.6-1.1,0.9-1.7c0.2-0.3,0.3-0.6,0.4-1
	c0-0.3,0.1-0.7,0.2-1.1c0.1-0.3,0.1-0.6,0-0.9c-0.1-0.4-0.1-0.8-0.2-1.2c-0.1-0.4-0.2-0.7-0.4-1.1c-0.1-0.2-0.2-0.5-0.4-0.6
	c-0.3-0.3-0.7-0.3-1,0c0,0,0,0,0,0c-0.2,0.2-0.4,0.4-0.6,0.6l-0.7,0.6c-0.2,0.2-0.4,0.4-0.6,0.6c-0.4,0.5-0.6,1.1-0.8,1.7
	c-0.2,0.5-0.3,1.1-0.4,1.6c-0.1,0.5-0.1,0.9-0.2,1.3c0,0.3-0.1,0.6-0.2,0.9c-0.2,0.2-0.5,0.4-0.8,0.4c-0.3,0-0.6,0-0.9-0.1
	c-0.3-0.2-0.5-0.4-0.6-0.6c-0.1-0.3-0.2-0.6-0.2-0.9c-0.1-0.4-0.1-0.9-0.1-1.3c0-0.5,0.1-1,0.2-1.6c0.1-0.5,0.2-1,0.3-1.5
	c0.1-0.4,0.3-0.8,0.6-1.2c0.1-0.3,0.3-0.5,0.5-0.8c0.2-0.2,0.3-0.4,0.5-0.6c0.3-0.4,0.6-0.7,0.9-1c0.3-0.3,0.6-0.5,0.8-0.7l0.9-0.7
	l1.1-0.8c0.2-0.2,0.6-0.4,1.1-0.8c0.5-0.4,1-0.8,1.4-1.3c0.5-0.5,0.9-1,1.3-1.6c0.3-0.4,0.5-0.8,0.6-1.3c0.2-0.7,0.4-1.3,0.6-1.8
	c0.2-0.6,0.2-1.3,0.1-2v-0.6c0-0.2,0-0.4-0.1-0.6c0-0.2-0.1-0.4-0.1-0.4c-0.1-0.1-0.2-0.2-0.2-0.4c-0.1-0.3-0.2-0.6-0.2-0.9
	c-0.1-0.5-0.2-0.7-0.1-0.8s0-0.1,0-0.2l0.4,0.1c0.6,0.1,1.2,0.3,1.7,0.6c0.5,0.3,1,0.6,1.5,1c0.4,0.2,0.7,0.7,0.8,1.1
	C117.4,109.4,117.5,109.9,117.6,110.4z"/>
<path class="st0" d="M82.1,122.3c0.2,0.7,0.3,1.4,0.2,2.2c-0.1,0.8-0.2,1.6-0.4,2.3c-0.2,0.8-0.5,1.5-0.7,2.3
	c-0.2,0.8-0.3,1.4-0.4,2c-0.2,1.6-0.4,3.3-0.7,4.9s-0.6,3.3-0.9,4.9c-0.5,1.8-0.9,3.7-1.2,5.6c-0.3,1.9-0.8,4-1.2,6.2
	c-0.5,2.2-1,4.9-1.7,8c-0.6,3.1-1.2,6.4-1.8,9.8c-0.5,3.2-1,6.2-1.4,9.1c-0.4,2.5-0.7,5-0.9,7.5c-0.1,0.8-0.2,1.5-0.4,2.1
	c-0.2,0.7-0.3,1.4-0.4,2.1c-0.1,1.4-0.2,3.1-0.4,5c-0.2,1.9-0.4,3.8-0.6,5.7c-0.2,2.1-0.3,4.1-0.4,6.1c-0.1,1.7,0,3.5,0.2,5.2
	l1.4,8.8c0.2,0.4,0.3,0.8,0.3,1.2c0,0.3,0.1,0.6,0.3,0.9c0.2,0.1,0.3,0.2,0.4,0.3c0.2,0.1,0.4,0.2,0.6,0.1c0.4-0.1,0.7-0.3,1.1-0.5
	l0.7-0.8c0.1-0.2,0.3-0.4,0.4-0.6c0.1-0.2,0.1-0.3,0.2-0.5l0.3-0.6c0.1-0.1,0.2-0.1,0.3-0.1c0.1,0,0.2-0.1,0.4-0.3h1.2
	c0.2,0.1,0.3,0.2,0.5,0.2c0.2,0.1,0.4,0.2,0.5,0.4c0.1,0.4,0.2,0.9,0.1,1.3c-0.1,0.2-0.1,0.3,0,0.4s0.1,0.2,0,0.4
	c0,0.1,0,0.3-0.1,0.4s-0.1,0.3-0.1,0.4c-0.3,0.7-0.8,1.2-1.3,1.7c-0.5,0.3-1,0.8-1.3,1.3l-0.1,0.3c-0.6,0.6-1.3,1-2.1,1.2
	c-0.8,0.3-1.6,0.4-2.4,0.3c-0.8-0.2-1.5-0.5-2.2-0.8c-1-0.4-1.8-0.7-2.2-0.9c-0.6-0.4-1.2-0.8-1.8-1.2c-0.5-0.4-1-0.9-1.5-1.4
	c-0.9-0.8-1.6-1.8-2-2.9c-0.5-1.1-0.9-2.2-1.1-3.4c-0.2-1.2-0.5-2.2-0.7-3c-0.3-1.4-0.4-2.8-0.4-4.2c0-1.3,0-2.6-0.1-3.9
	c-0.2-2.5-0.2-4.9-0.1-7.4c0.1-2.3,0.3-4.7,0.5-7.1c0.1-1.1,0.2-2.2,0.4-3.3c0.2-1.2,0.3-2.3,0.4-3.3c0.2-1.1,0.3-2.1,0.3-3.2
	c0-1.1,0.1-2.1,0.3-3.2c0.2-1.3,0.4-2.7,0.7-4.4c0.3-1.7,0.6-3.4,1-5.3c0.2-1.6,0.5-3.2,0.9-4.8c0.4-1.6,0.8-3.3,1.1-4.9
	c0.3-1.6,0.6-3.1,0.8-4.4c0.2-1.4,0.5-2.8,0.7-4.1c0.2-1.4,0.5-2.7,0.8-4c0.2-1.3,0.5-2.4,0.7-3.1c0.1-0.5,0.2-1,0.3-1.4
	c0.2-0.8,0.4-1.7,0.7-2.8c0.2-1.1,0.5-2.2,0.7-3.5c0.2-1.3,0.5-2.6,0.8-3.8s0.5-2.4,0.5-3.7c0.1-1.2,0.3-2.2,0.5-3.1
	c0.1-0.6,0.1-1.3,0.1-1.9c0-0.4-0.3-0.6-0.8-0.7c-0.2-0.1-0.4,0-0.7,0.2s-0.8,0.8-1.6,1.5c-1.1,1.2-2.1,2.4-3.2,3.8
	c-1.1,1.4-1.9,2.5-2.4,3.2l-4.9,8.2l-0.7,1.4c-0.3,0.6-0.5,1.1-0.7,1.7l-4.9,10.4c-0.5,0.9-0.9,1.8-1.2,2.7l-1.3,3.3
	c-0.4,1.1-0.8,2.1-1.2,3.1c-0.2,0.7-0.5,1.3-0.8,1.9c-0.8,1.4-1.5,2.9-2.2,4.5c-0.7,1.5-1.3,3.1-1.8,4.8c-0.1,0.3-0.1,0.6-0.1,0.9
	c0,0.3,0,0.6-0.1,0.9c-1.3,3.7-2.6,7.2-3.9,10.8c-1.3,3.5-2.4,7.2-3.5,10.9c-0.5,1.2-0.9,2.3-1.3,3.3c-0.4,1.1-0.8,2.2-1.2,3.2
	c-0.4,1.2-0.7,2.4-0.8,3.7c-0.1,0.4-0.2,0.9-0.4,1.6l-0.6,2c-0.2,0.6-0.4,1.3-0.7,1.9c-0.1,0.4-0.4,0.8-0.7,1.2
	c-0.5,0.4-1.2,0.6-1.9,0.4c-0.6-0.1-1.3-0.2-1.9-0.4c-1.5-0.4-2.8-1.5-3.5-2.9c-0.6-1.4-0.9-2.9-1-4.5c-0.1-2.3-0.1-4.7,0-7.3
	c0.1-2.6,0.2-4.6,0.4-6c0.1-1,0.2-1.9,0.2-2.8c0-0.8,0.2-1.7,0.4-2.5l0.9-10.1c0.1-0.5,0.1-0.8,0.1-0.8c0.1-0.3,0.1-0.5,0.2-0.8
	c0.8-5.8,1.5-11.3,2.2-16.6s1.4-10.8,2.1-16.6c0.1-0.8,0.3-2,0.5-3.8c0.2-1.7,0.5-3.6,0.7-5.6c0.2-2,0.4-3.9,0.6-5.6
	c0.1-1.8,0.2-3.1,0.2-4c0-0.1,0-0.3,0.1-0.4c0-0.1,0-0.3-0.1-0.4c-0.2-0.4-0.2-0.6,0-0.8c0.2-0.2,0.4-0.3,0.6-0.5
	c0.4-0.2,0.8-0.3,1.2-0.4c0.5,0,1.1-0.1,1.7-0.1c0.8,0,1.6,0,2.4,0.1c0.6,0,1.3,0.2,1.8,0.6c0.8,0.7,1.4,1.5,2,2.3
	c0.2,0.5,0.3,1,0.3,1.6c0,0.5,0,1,0.1,1.4c0.3,2.8,0.2,5.6-0.3,8.4c-0.5,3.1-0.9,5.7-1.2,7.8c-0.1,0.6-0.1,1.2-0.1,1.8
	c0,0.7,0,1.3-0.1,2c-0.1,0.5-0.2,1.1-0.3,1.7c-0.1,0.7-0.2,1.3-0.3,2c-0.2,0.6-0.3,1.3-0.2,2c0,0.7,0,1.3-0.1,2L34.4,175v0.4
	c-0.2,0.6-0.2,0.9,0,0.9s0.3-0.2,0.4-0.6c0.1-0.3,0.2-0.7,0.3-1c0.2-0.7,0.4-1.3,0.7-2c0.3-0.7,0.5-1.2,0.6-1.4
	c0.4-0.8,0.7-1.6,1-2.5c0.3-0.8,0.6-1.7,1-2.5l2.2-4.4c0.2-0.5,0.4-0.9,0.5-1.2c0.1-0.3,0.3-0.7,0.5-1.2c0.3-0.8,0.6-1.7,1-2.5
	l5.2-11.6c0.2-0.4,0.4-0.8,0.7-1.2s0.5-0.7,0.7-1.2l1.3-2l1.2-2.3c1.1-1.7,2.1-3.5,3.1-5.3s2-3.6,3.1-5.3c0.3-0.5,0.5-0.9,0.7-1.2
	c0.2-0.3,0.4-0.6,0.7-1c0.6-0.9,1.3-1.8,2.1-2.8c0.8-1,1.7-2,2.6-3c0.9-0.9,1.8-1.7,2.9-2.4c0.9-0.6,1.9-1.1,2.9-1.4
	c1.2-0.3,2-0.5,2.7-0.6c1.1-0.1,2.2,0,3.2,0.1c0.5,0.2,1.1,0.5,1.8,0.8s1.3,0.6,1.8,0.9c0.5,0.4,1,1,1.3,1.6c0.3,0.6,0.6,1.1,1,1.6
	c0.1,0.2,0.2,0.4,0.3,0.6S82,122.1,82.1,122.3z"/>
<path class="st0" d="M118.1,160.8c0.5,0.1,1,0.4,1.1,0.9c0.2,0.6,0.1,1.4-0.3,1.9l-0.3,0.7l-1.6,3.2c-0.8,1.8-1.8,3.5-2.9,5.2
	c-1,1.6-2,3.1-2.8,4.6c-0.3,0.6-0.6,1.2-1.1,1.8c-0.5,0.5-0.9,1.1-1.2,1.8c-0.7,1.2-1.5,2.3-2.3,3.5c-0.8,1.2-1.6,2.3-2.3,3.5
	c-0.8,1.1-1.8,2-2.9,2.8c-0.8,0.5-1.6,1-2.2,1.7c-0.8,0.8-1.7,1.4-2.8,1.8c-1.1,0.5-2.6,0.9-4.4,1.5c-1.2,0.1-2.3,0.1-3.5,0
	c-1.1,0-2.1-0.2-3.1-0.7c-1.4-0.8-2.7-1.8-3.6-3.1c-1.3-1.7-2.1-3.6-2.4-5.7c-0.2-0.7-0.3-1.4-0.5-2.1c-0.1-0.8-0.2-1.6-0.1-2.4
	v-1.9c0-0.7,0-1.3,0.1-2c0.1-0.6,0.2-1.4,0.3-2.2c0.1-0.7,0.3-1.4,0.5-2.1c0.2-0.8,0.3-1.7,0.5-2.6c0.1-0.8,0.3-1.7,0.5-2.5
	c0.3-1.1,0.7-2.1,1.2-3.2c0.5-1.2,1.1-2.4,1.8-3.5c0.7-1.1,1.3-2.1,1.8-3c0.3-0.6,0.7-1.1,1.2-1.6c0.3-0.4,0.7-0.8,1.1-1.1
	c0.4-0.3,0.7-0.6,1.1-1c0.5-0.5,1-0.9,1.6-1.2c1.8-0.9,3.7-1.5,5.7-1.6c1.9,0,3.7,0.4,5.4,1.4c0.4,0.3,0.8,0.6,1.1,1
	c0.3,0.4,0.6,0.8,0.9,1.3c0.3,0.4,0.4,0.9,0.5,1.4c0.1,0.5,0.2,1,0.3,1.8c0.2,0.8,0.2,1.7,0.1,2.5l-0.7,2.2c-0.5,1.1-1,2.1-1.6,3.1
	c-0.3,0.6-0.7,1-1.3,1.4l-1.6,1c-0.5,0.4-1,0.7-1.5,1c-0.5,0.3-1.1,0.4-1.6,0.3c-0.5-0.1-1-0.1-1.5,0.1c-0.6,0.1-1.3,0.2-1.9,0.1
	c-0.2,0-0.4,0-0.6-0.1c-0.2,0-0.4-0.1-0.6-0.1c-0.4-0.2-0.8-0.3-1.2-0.4l-0.9-0.3c0,0.4-0.1,0.9-0.3,1.3c-0.2,0.6-0.4,1.3-0.5,2
	c-0.4,1.4-0.8,2.8-1.1,4.2c-0.2,0.5-0.3,1.1-0.3,1.6c0,0.5,0,1.1-0.1,1.6c-0.3,1.3-0.3,2.7,0,4c0.3,1.2,0.5,2.2,0.8,3.2
	c0.3,0.7,0.8,1.3,1.6,1.6c0.8,0.4,1.4,0.6,1.8,0.8c0.4,0.1,0.7,0.1,1.1,0c0.4-0.1,0.8-0.1,1.2-0.1c1.3,0,2.6-0.5,3.5-1.4
	c0.7-0.6,1.5-1.3,2.3-1.9c0.8-0.6,1.5-1.3,2.2-2c0.6-0.9,1.2-1.7,1.8-2.5c0.6-0.8,1.1-1.5,1.6-2.1c0.5-0.7,1-1.4,1.5-2
	c0.4-0.6,0.9-1.3,1.4-2c1.6-2.1,3.1-4.3,4.4-6.7l3.9-7.1l0.4-0.8c0.3-0.4,0.4-0.7,0.5-0.7L118.1,160.8z M92.1,162.3
	c-0.2,0.5-0.4,1.1-0.5,1.6c-0.2,0.6-0.4,1.3-0.7,2c0.2,0.1,0.4,0.2,0.6,0.3l0.7,0.3l1.1,0.3c0.3,0.1,0.5,0.1,0.8,0
	c0.5,0,0.9-0.1,1.3-0.3l1.3-0.5c1.1-0.7,1.8-1.8,2.2-3.1c0.4-0.7,0.5-1.5,0.5-2.3c0.1-0.2,0.1-0.4,0-0.6c-0.1-0.2-0.1-0.4-0.1-0.6
	c0-0.3,0-0.6-0.1-0.9c-0.3-0.7-1-1.2-1.8-1.2c-0.4,0-0.8,0.1-1.2,0.1c-0.5,0.1-0.9,0.3-1.3,0.7c-0.5,0.3-0.9,0.7-1.3,1.1
	c-0.5,0.5-0.9,1.1-1.2,1.7c-0.1,0.3-0.2,0.5-0.3,0.8C92.4,161.8,92.3,162,92.1,162.3L92.1,162.3z"/>
<path class="st0" d="M140.9,161.7c0.3,0.3,0.4,0.4,0.4,0.5c-0.3,1-0.7,2-1.1,2.9c-0.6,1.3-1.2,2.7-1.8,4.2l-0.6,1.5
	c-0.2,0.5-0.4,1-0.6,1.5c-0.3,1.1-0.8,2.1-1.4,3.1c-0.2,0.5-0.4,1.1-0.7,2c-0.3,0.9-0.6,1.8-1.1,2.9l-0.8,2.2
	c-0.3,0.7-0.6,1.5-0.9,2.3c-0.4,0.8-0.6,1.6-0.9,2.3c-0.3,0.8-0.6,1.6-1,2.4c-0.4,0.8-0.7,1.5-1,2.2c-0.3,0.7-0.6,1.4-1,2
	c-0.5,0.9-0.9,1.8-1.3,2.6c-0.2,0.6-0.6,1.2-1.1,1.6c-0.7,0.5-1.4,0.9-2.1,1.3c-0.6,0.2-1.1,0.4-1.8,0.5c-0.9,0.3-2.3,0-4.3-0.8
	l-2.6-1.4c-0.6-0.4-1.1-0.8-1.5-1.4c-0.4-0.4-0.8-1-1.2-1.6c-0.7-1-1.1-2.2-1.4-3.4c-0.3-1.4-0.5-2.8-0.5-4.2
	c-0.1-1.5-0.1-3-0.1-4.4c0-1.5,0.1-2.8,0.1-3.8c0-0.7,0-1.5,0.1-2.2s0.1-1.5,0.2-2.2c0.4-1.7,0.7-3.5,0.9-5.2
	c0.2-1.6,0.5-3.2,0.8-4.7c0.3-1.3,0.6-2.5,0.9-3.8c0.4-1.3,0.7-2.6,1.1-4c0.1-0.4,0.2-1.1,0.5-2c0.2-0.9,0.5-1.8,0.7-2.7
	c0.3-0.9,0.6-1.7,0.9-2.5c0.2-0.5,0.5-1,0.9-1.4c0.4-0.2,0.8-0.3,1.2-0.3c0.5,0,1.1,0,1.6,0.1c0.5,0.1,1,0.2,1.5,0.3
	c0.3,0.1,0.6,0.2,0.9,0.3c0.2,0.1,0.4,0.2,0.5,0.3c0.2,0.1,0.4,0.3,0.5,0.5l0.1,0.1c1.1,0.9,1.5,1.8,1.1,2.6
	c-0.3,0.8-0.7,1.7-1.1,2.7c-0.1,0.5-0.3,0.9-0.5,1.4c-0.8,1.9-1.4,3.9-1.8,5.9c-0.5,2.3-0.9,4.7-1.4,7.1s-0.7,4.8-0.9,7.1
	c-0.2,2.3-0.4,4.2-0.5,5.9c-0.2,1.9-0.2,3.9-0.2,5.8c0,1.6,0.3,3.3,0.7,4.9c0.4,1.1,0.9,1.7,1.8,1.8c0.4,0,0.7-0.2,1-0.5
	c0.3-0.3,0.6-0.6,0.9-1c0.2-0.2,0.3-0.4,0.4-0.6s0.2-0.4,0.4-0.6c0.3-0.4,0.6-0.9,0.8-1.4l0.5-1.4c0.3-0.3,0.5-0.8,0.5-1.2
	c0.2-0.7,0.6-1.4,1.1-2c0.8-1.4,1.5-2.9,2-4.4c0.7-1.9,1.4-3.6,2-4.9l1.6-3.9l2.7-5.7l1.8-3.6c0.1-0.2,0.2-0.4,0.3-0.7l0.3-0.8
	c0.1-0.1,0.3-0.1,0.4-0.1c0.1,0,0.2-0.1,0.3-0.1c0.1-0.1,0.2-0.1,0.3-0.1s0.2-0.1,0.3-0.1c0.1,0,0.1,0,0.1,0.1s0,0.1,0.1,0.1h0.1
	c0.2,0.1,0.4,0.1,0.5,0.1h0.5c0.1,0.1,0.2,0.1,0.3,0.2C140.7,161.7,140.8,161.7,140.9,161.7z M122.6,140.7c-0.3-0.2-0.6-0.6-0.8-0.9
	v-1.5c0-0.5,0-1.1,0.1-1.6c0.1-0.6,0.3-1.1,0.5-1.6c0.2-0.6,0.4-0.9,0.8-0.9c0.2-0.1,0.4-0.2,0.6-0.3c0.2-0.1,0.4-0.2,0.6-0.2
	c0.5-0.5,1.2-0.7,1.8-0.5c0.7,0.1,1.4,0.3,2,0.7l0.3,0.3l0.3,0.3c0.1,0.2,0.1,0.4,0.1,0.5l0.3,0.8c0,0.1,0,0.3,0.1,0.4
	c0.1,0.2,0.1,0.4,0.1,0.7c0,0.2,0,0.4,0.1,0.5c0,0.2,0,0.5-0.1,0.7l-0.2,0.6l-0.2,0.6c-0.2,0.4-0.4,0.7-0.7,0.9
	c-0.3,0.3-0.6,0.6-0.9,0.8c-0.5,0.4-1.2,0.6-1.9,0.5c-0.2-0.1-0.5-0.1-0.7,0c-0.3,0.1-0.6,0.1-0.9,0l-0.1,0.1
	c-0.4,0.1-0.9-0.2-1.1-0.5L122.6,140.7z"/>
<path class="st0" d="M176.2,163.2c-0.3,0.8-0.6,1.9-1.1,3.4c-0.5,1.4-0.9,2.9-1.3,4.4c-0.5,1.5-0.9,2.8-1.2,4.1
	c-0.2,0.8-0.5,1.6-0.8,2.4l-2,6.9l-0.3,0.5c-0.3,0.7-0.6,1.7-0.9,3c-0.4,1.3-0.8,2.7-1.4,4.2c-0.5,1.5-1.1,3.1-1.8,4.9
	s-1.4,3.3-2.1,4.9c-0.5,1.1-1,2.1-1.7,3.1c-0.5,0.7-1,1.4-1.6,2c-0.5,0.5-0.8,1-1,1.6c-0.3,0.7-0.7,1.3-1.3,1.8
	c-0.8,0.7-1.7,1.4-2.6,1.9c-0.9,0.5-1.9,0.8-2.9,0.7c-1.6-0.1-3.2-0.4-4.7-0.9c-1.6-0.4-3.1-1.1-4.4-2c-1.1-1-2.1-2.1-2.9-3.3
	c-0.8-1.3-1.5-2.7-2.1-4.1c-1.8-4.9-2.7-10-2.7-15.1v-15.4l1.2-10.9c0.4-2.9,0.8-5.7,1.1-8.6c0.3-2.8,0.7-5.5,1.5-8.2
	c0.8-3.1,1.5-6.3,2.1-9.6c0.6-3.2,1.4-6.4,2.4-9.6l1.9-5.7c0.7-1.9,1.4-3.8,2.1-5.7s1.4-3.7,2.2-5.5l0.7-1.7l0.3-0.8
	c0.1-0.2,0.2-0.5,0.4-0.9c0.4-0.7,0.8-1.3,1.2-1.9c0.7-1,1.3-2,1.8-3.2c0.4-1.1,1.2-2.1,2.1-2.8c0.4-0.2,0.7-0.5,1.1-0.8
	c0.2-0.2,0.3-0.3,0.5-0.4c0.2-0.1,0.4-0.2,0.6-0.2c0.2,0,0.7-0.2,1.3-0.3c0.8-0.2,1.2-0.2,1.2-0.1c0,0.1,0.4,0.2,1.1,0.2
	c0.9,0.1,1.8,0.4,2.7,0.8c1.2,0.6,2.3,1.5,3.2,2.5c1.2,1.3,2,2.8,2.4,4.5c0.3,0.9,0.6,1.8,0.7,2.7c0.1,0.8,0.2,1.6,0.3,2.3
	c0.1,0.4,0.2,0.5,0.2,0.5c0.1,0,0.1,0.2,0.1,0.7c0.2,1.7,0,3.4-0.5,5.1c-0.5,1.5-0.8,3.1-1.1,4.6c-0.5,2.4-1.2,4.7-2.1,7
	c-0.9,2.1-1.9,4.4-3.2,6.9c-0.5,0.8-1,1.9-1.8,3.4c-0.7,1.4-1.5,2.9-2.3,4.4c-0.8,1.5-1.6,3-2.4,4.3c-0.8,1.3-1.4,2.3-1.8,3
	c-1.3,1.8-2.5,3.4-3.6,4.8c-1.2,1.6-2.6,3.1-4.1,4.4c-0.2,0.2-0.5,0.5-0.6,0.8c-0.2,0.3-0.4,0.5-0.7,0.5c-0.3,0.1-0.6,0.2-0.8,0.4
	c-0.2,0.2-0.5,0.3-0.7,0.5c-0.3,0.2-0.4,0.5-0.3,0.8c0.1,0.5,0.1,1.1,0,1.6l-1.1,9.8c-0.4,1.4-0.6,2.9-0.4,4.3
	c0.2,1.1,0.2,2.3,0,3.4c-0.3,1.5-0.4,3-0.4,4.4c0,1.7,0.1,3.5,0.2,5.3s0.3,3.7,0.5,5.4c0.2,1.8,0.5,3.4,0.7,4.9
	c0.3,1.4,0.6,2.9,1.1,4.4c0.3,1.3,1.1,2.5,2.2,3.3l1.8,0.3c0.6,0.1,1.2-0.1,1.7-0.4c0.4-0.3,1-0.6,1.6-0.9c0.5-0.2,0.9-0.5,1.3-0.9
	c0.7-0.7,1.3-1.4,1.8-2.3c0.4-0.7,0.8-1.5,1.1-2.2c0.4-0.8,0.7-1.5,1.1-2.4c0.4-1,0.9-1.9,1.5-2.8c0.5-1.2,1-2.5,1.4-3.8
	c1.3-3.2,2.5-6.6,3.7-10c1.2-3.4,2.4-6.8,3.4-10.1c0.7-2,1.4-4,2-6.1c0.6-2,1.1-3.7,1.6-5.1c0.2,0,0.3,0,0.3-0.1
	c0-0.1,0-0.1,0.1-0.1c0,0,0,0,0,0c0.2,0.1,0.4,0.1,0.5-0.1c0.1-0.1,0.2-0.2,0.3-0.2h0.1c0.1,0,0.1,0,0.1-0.1s0-0.1,0.1-0.1h0.4
	c0.1,0,0.2,0.1,0.4,0.3c0.1,0.1,0.2,0.3,0.3,0.4c0.1,0.2,0.3,0.4,0.5,0.7c0.2,0.3,0.3,0.7,0.3,1.1L176.2,163.2z M147.5,148.5
	c-0.1,0.7-0.3,1.3-0.5,2c-0.2,0.5-0.3,1.1-0.3,1.7c0.3-0.4,0.7-0.7,1.1-1c0.7-0.6,1.3-1.2,1.8-2c1-1.3,2-2.7,3-4.2
	c1-1.5,1.8-2.6,2.2-3.3l3.8-6.3c0.4-0.6,0.6-0.9,0.5-0.9c-0.1,0,0-0.2,0.1-0.7c0.1-0.1,0.1-0.2,0.1-0.3c0.1-0.2,0.2-0.3,0.3-0.5
	l1.8-3.5c1.1-1.6,1.9-3.4,2.4-5.3c0.4-1.7,1-3.7,1.6-6.1v-0.3l0.4-2.6c0.3-1.4,0.5-2.6,0.7-3.5c0.2-1.2,0.3-2.5,0.1-3.8
	c-0.1-0.6-0.2-1.4-0.3-2.1l-0.3-2c-0.1-0.7-0.5-1.3-0.9-1.8c-0.4-0.4-0.9-0.7-1.5-0.9c-0.4-0.1-0.8,0-1.2,0.1
	c-0.4,0.1-0.7,0.5-0.9,1.1c-0.2,0.3-0.3,0.6-0.4,0.9c-0.1,0.2-0.2,0.5-0.3,0.7c-0.1,0.2-0.3,0.5-0.4,0.7c-1.6,3-3,6.2-4.3,9.4
	c-1.3,3.2-2.4,6.6-3.2,10c-1,3.6-1.8,7.2-2.4,10.9c-0.6,3.6-1.3,7.2-2.2,10.8c-0.2,0.4-0.3,0.9-0.3,1.4
	C147.7,147.5,147.6,147.9,147.5,148.5z"/>
</svg>
